%TF.GenerationSoftware,KiCad,Pcbnew,7.0.1*%
%TF.CreationDate,2023-03-30T16:52:30-04:00*%
%TF.ProjectId,system-board,73797374-656d-42d6-926f-6172642e6b69,rev?*%
%TF.SameCoordinates,Original*%
%TF.FileFunction,Copper,L2,Bot*%
%TF.FilePolarity,Positive*%
%FSLAX46Y46*%
G04 Gerber Fmt 4.6, Leading zero omitted, Abs format (unit mm)*
G04 Created by KiCad (PCBNEW 7.0.1) date 2023-03-30 16:52:30*
%MOMM*%
%LPD*%
G01*
G04 APERTURE LIST*
G04 Aperture macros list*
%AMRoundRect*
0 Rectangle with rounded corners*
0 $1 Rounding radius*
0 $2 $3 $4 $5 $6 $7 $8 $9 X,Y pos of 4 corners*
0 Add a 4 corners polygon primitive as box body*
4,1,4,$2,$3,$4,$5,$6,$7,$8,$9,$2,$3,0*
0 Add four circle primitives for the rounded corners*
1,1,$1+$1,$2,$3*
1,1,$1+$1,$4,$5*
1,1,$1+$1,$6,$7*
1,1,$1+$1,$8,$9*
0 Add four rect primitives between the rounded corners*
20,1,$1+$1,$2,$3,$4,$5,0*
20,1,$1+$1,$4,$5,$6,$7,0*
20,1,$1+$1,$6,$7,$8,$9,0*
20,1,$1+$1,$8,$9,$2,$3,0*%
G04 Aperture macros list end*
%TA.AperFunction,ComponentPad*%
%ADD10RoundRect,0.250000X-0.625000X0.350000X-0.625000X-0.350000X0.625000X-0.350000X0.625000X0.350000X0*%
%TD*%
%TA.AperFunction,ComponentPad*%
%ADD11O,1.750000X1.200000*%
%TD*%
%TA.AperFunction,WasherPad*%
%ADD12C,3.200000*%
%TD*%
%TA.AperFunction,ComponentPad*%
%ADD13R,1.600000X1.600000*%
%TD*%
%TA.AperFunction,ComponentPad*%
%ADD14C,1.600000*%
%TD*%
%TA.AperFunction,ComponentPad*%
%ADD15RoundRect,0.250000X0.350000X0.625000X-0.350000X0.625000X-0.350000X-0.625000X0.350000X-0.625000X0*%
%TD*%
%TA.AperFunction,ComponentPad*%
%ADD16O,1.200000X1.750000*%
%TD*%
%TA.AperFunction,ComponentPad*%
%ADD17R,1.905000X2.000000*%
%TD*%
%TA.AperFunction,ComponentPad*%
%ADD18O,1.905000X2.000000*%
%TD*%
%TA.AperFunction,ViaPad*%
%ADD19C,0.800000*%
%TD*%
%TA.AperFunction,Conductor*%
%ADD20C,0.300000*%
%TD*%
G04 APERTURE END LIST*
D10*
%TO.P,J2,1,Pin_1*%
%TO.N,/SPKR_P*%
X69600000Y-96850000D03*
D11*
%TO.P,J2,2,Pin_2*%
%TO.N,/SPKR_N*%
X69600000Y-98850000D03*
%TD*%
D12*
%TO.P,A1,*%
%TO.N,*%
X55400000Y-54100000D03*
X73180000Y-54100000D03*
D13*
%TO.P,A1,1,~{RESET}*%
%TO.N,unconnected-(A1-~{RESET}-Pad1)*%
X54130000Y-57910000D03*
D14*
%TO.P,A1,2,3V3*%
%TO.N,VCC*%
X54130000Y-60450000D03*
%TO.P,A1,3,AREF*%
%TO.N,unconnected-(A1-AREF-Pad3)*%
X54130000Y-62990000D03*
%TO.P,A1,4,GND*%
%TO.N,GND*%
X54130000Y-65530000D03*
%TO.P,A1,5,A0*%
%TO.N,Net-(A1-A0)*%
X54130000Y-68070000D03*
%TO.P,A1,6,A1*%
%TO.N,Net-(A1-A1)*%
X54130000Y-70610000D03*
%TO.P,A1,7,A2*%
%TO.N,Net-(A1-A2)*%
X54130000Y-73150000D03*
%TO.P,A1,8,A3*%
%TO.N,unconnected-(A1-A3-Pad8)*%
X54130000Y-75690000D03*
%TO.P,A1,9,A4*%
%TO.N,unconnected-(A1-A4-Pad9)*%
X54130000Y-78230000D03*
%TO.P,A1,10,A5*%
%TO.N,unconnected-(A1-A5-Pad10)*%
X54130000Y-80770000D03*
%TO.P,A1,11,SCK*%
%TO.N,Net-(A1-SCK)*%
X54130000Y-83310000D03*
%TO.P,A1,12,MOSI*%
%TO.N,Net-(A1-MOSI)*%
X54130000Y-85850000D03*
%TO.P,A1,13,MISO*%
%TO.N,Net-(A1-MISO)*%
X54130000Y-88390000D03*
%TO.P,A1,14,RX*%
%TO.N,unconnected-(A1-RX-Pad14)*%
X54130000Y-90930000D03*
%TO.P,A1,15,TX*%
%TO.N,unconnected-(A1-TX-Pad15)*%
X54130000Y-93470000D03*
%TO.P,A1,16,SPARE*%
%TO.N,unconnected-(A1-SPARE-Pad16)*%
X54130000Y-96010000D03*
%TO.P,A1,17,SDA*%
%TO.N,Net-(A1-SDA)*%
X74450000Y-96010000D03*
%TO.P,A1,18,SCL*%
%TO.N,Net-(A1-SCL)*%
X74450000Y-93470000D03*
%TO.P,A1,19,D0*%
%TO.N,unconnected-(A1-D0-Pad19)*%
X74450000Y-90930000D03*
%TO.P,A1,20,D1*%
%TO.N,unconnected-(A1-D1-Pad20)*%
X74450000Y-88390000D03*
%TO.P,A1,21,D2*%
%TO.N,unconnected-(A1-D2-Pad21)*%
X74450000Y-85850000D03*
%TO.P,A1,22,D3*%
%TO.N,unconnected-(A1-D3-Pad22)*%
X74450000Y-83310000D03*
%TO.P,A1,23,D4*%
%TO.N,/LRC*%
X74450000Y-80770000D03*
%TO.P,A1,24,D5*%
%TO.N,/BCLK*%
X74450000Y-78230000D03*
%TO.P,A1,25,D6*%
%TO.N,/DIN*%
X74450000Y-75690000D03*
%TO.P,A1,26,USB*%
%TO.N,unconnected-(A1-USB-Pad26)*%
X74450000Y-73150000D03*
%TO.P,A1,27,EN*%
%TO.N,unconnected-(A1-EN-Pad27)*%
X74450000Y-70610000D03*
%TO.P,A1,28,VBAT*%
%TO.N,unconnected-(A1-VBAT-Pad28)*%
X74450000Y-68070000D03*
%TD*%
D15*
%TO.P,J3,1,Pin_1*%
%TO.N,VCC*%
X57900000Y-48750000D03*
D16*
%TO.P,J3,2,Pin_2*%
%TO.N,Net-(J3-Pin_2)*%
X55900000Y-48750000D03*
%TD*%
D17*
%TO.P,Q1,1,G*%
%TO.N,Net-(A1-A0)*%
X63340000Y-65100000D03*
D18*
%TO.P,Q1,2,D*%
%TO.N,Net-(J3-Pin_2)*%
X60800000Y-65100000D03*
%TO.P,Q1,3,S*%
%TO.N,GND*%
X58260000Y-65100000D03*
%TD*%
D19*
%TO.N,GND*%
X70500000Y-88600000D03*
X70500000Y-52400000D03*
X64000000Y-86600000D03*
X67442893Y-62350000D03*
X58300000Y-62800000D03*
X55900000Y-65530000D03*
X69001100Y-86100000D03*
X72400000Y-91250550D03*
X57779977Y-103929977D03*
X67800000Y-91150550D03*
%TO.N,Net-(A1-SDA)*%
X72664727Y-83615227D03*
X70150500Y-83615227D03*
%TD*%
D20*
%TO.N,Net-(A1-SDA)*%
X70150500Y-83615227D02*
X72664727Y-83615227D01*
%TD*%
%TA.AperFunction,Conductor*%
%TO.N,GND*%
G36*
X75937500Y-42217113D02*
G01*
X75982887Y-42262500D01*
X75999500Y-42324500D01*
X75999500Y-68019228D01*
X75986291Y-68070000D01*
X75999500Y-68120772D01*
X75999500Y-70559228D01*
X75986291Y-70609999D01*
X75999500Y-70660772D01*
X75999500Y-73099228D01*
X75986291Y-73150000D01*
X75999500Y-73200772D01*
X75999500Y-75639228D01*
X75986291Y-75690000D01*
X75999500Y-75740772D01*
X75999500Y-78179228D01*
X75986291Y-78229999D01*
X75999500Y-78280772D01*
X75999500Y-80719228D01*
X75986291Y-80770000D01*
X75999500Y-80820772D01*
X75999500Y-83259228D01*
X75986291Y-83310000D01*
X75999500Y-83360772D01*
X75999500Y-85799228D01*
X75986291Y-85850000D01*
X75999500Y-85900772D01*
X75999500Y-88339228D01*
X75986291Y-88389999D01*
X75999500Y-88440772D01*
X75999500Y-90879228D01*
X75986291Y-90930000D01*
X75999500Y-90980772D01*
X75999500Y-93419228D01*
X75986291Y-93469999D01*
X75999500Y-93520772D01*
X75999500Y-95959228D01*
X75986291Y-96010000D01*
X75999500Y-96060772D01*
X75999500Y-121275500D01*
X75982887Y-121337500D01*
X75937500Y-121382887D01*
X75875500Y-121399500D01*
X52624500Y-121399500D01*
X52562500Y-121382887D01*
X52517113Y-121337500D01*
X52500500Y-121275500D01*
X52500500Y-116393934D01*
X55345668Y-116393934D01*
X55361058Y-116481207D01*
X55376135Y-116566711D01*
X55411752Y-116649281D01*
X55445623Y-116727804D01*
X55550390Y-116868530D01*
X55684783Y-116981300D01*
X55684784Y-116981300D01*
X55684786Y-116981302D01*
X55841567Y-117060040D01*
X55841568Y-117060040D01*
X55841570Y-117060041D01*
X56012277Y-117100500D01*
X56012279Y-117100500D01*
X56143704Y-117100500D01*
X56143709Y-117100500D01*
X56274255Y-117085241D01*
X56439117Y-117025237D01*
X56585696Y-116928830D01*
X56706092Y-116801218D01*
X56793812Y-116649281D01*
X56844130Y-116481210D01*
X56849213Y-116393934D01*
X63345668Y-116393934D01*
X63361058Y-116481207D01*
X63376135Y-116566711D01*
X63411752Y-116649281D01*
X63445623Y-116727804D01*
X63550390Y-116868530D01*
X63684783Y-116981300D01*
X63684784Y-116981300D01*
X63684786Y-116981302D01*
X63841567Y-117060040D01*
X63841568Y-117060040D01*
X63841570Y-117060041D01*
X64012277Y-117100500D01*
X64012279Y-117100500D01*
X64143704Y-117100500D01*
X64143709Y-117100500D01*
X64274255Y-117085241D01*
X64439117Y-117025237D01*
X64585696Y-116928830D01*
X64706092Y-116801218D01*
X64793812Y-116649281D01*
X64844130Y-116481210D01*
X64854331Y-116306065D01*
X64823865Y-116133289D01*
X64754377Y-115972196D01*
X64649610Y-115831470D01*
X64649609Y-115831469D01*
X64515216Y-115718699D01*
X64358429Y-115639958D01*
X64187723Y-115599500D01*
X64187721Y-115599500D01*
X64056291Y-115599500D01*
X63974699Y-115609036D01*
X63925742Y-115614759D01*
X63760883Y-115674762D01*
X63614303Y-115771170D01*
X63493908Y-115898780D01*
X63406188Y-116050718D01*
X63406188Y-116050719D01*
X63355870Y-116218790D01*
X63355869Y-116218792D01*
X63355870Y-116218792D01*
X63345668Y-116393934D01*
X56849213Y-116393934D01*
X56854331Y-116306065D01*
X56823865Y-116133289D01*
X56754377Y-115972196D01*
X56649610Y-115831470D01*
X56649609Y-115831469D01*
X56515216Y-115718699D01*
X56358429Y-115639958D01*
X56187723Y-115599500D01*
X56187721Y-115599500D01*
X56056291Y-115599500D01*
X55974699Y-115609036D01*
X55925742Y-115614759D01*
X55760883Y-115674762D01*
X55614303Y-115771170D01*
X55493908Y-115898780D01*
X55406188Y-116050718D01*
X55406188Y-116050719D01*
X55355870Y-116218790D01*
X55355869Y-116218792D01*
X55355870Y-116218792D01*
X55345668Y-116393934D01*
X52500500Y-116393934D01*
X52500500Y-99881420D01*
X53875789Y-99881420D01*
X53905381Y-100125131D01*
X53939930Y-100244406D01*
X53973682Y-100360931D01*
X54078924Y-100582723D01*
X54218381Y-100784762D01*
X54388442Y-100961813D01*
X54584701Y-101109293D01*
X54584703Y-101109294D01*
X54802072Y-101223379D01*
X54918773Y-101262339D01*
X55034937Y-101301120D01*
X55156094Y-101320809D01*
X55277252Y-101340500D01*
X55277253Y-101340500D01*
X55461279Y-101340500D01*
X55461280Y-101340500D01*
X55644699Y-101325693D01*
X55883060Y-101266942D01*
X56108911Y-101170716D01*
X56316400Y-101039508D01*
X56500156Y-100876714D01*
X56655418Y-100686553D01*
X56778166Y-100473948D01*
X56865219Y-100244406D01*
X56914325Y-100003872D01*
X56921226Y-99832613D01*
X56924210Y-99758579D01*
X56919403Y-99718986D01*
X56894619Y-99514871D01*
X56826318Y-99279069D01*
X56721076Y-99057277D01*
X56581619Y-98855238D01*
X56526061Y-98797396D01*
X68220746Y-98797396D01*
X68230746Y-99007330D01*
X68280297Y-99211580D01*
X68367602Y-99402752D01*
X68477846Y-99557566D01*
X68489514Y-99573952D01*
X68641622Y-99718986D01*
X68703225Y-99758576D01*
X68818425Y-99832612D01*
X68857580Y-99848287D01*
X69013543Y-99910725D01*
X69142228Y-99935527D01*
X69219914Y-99950500D01*
X69219915Y-99950500D01*
X69927420Y-99950500D01*
X69927425Y-99950500D01*
X70084218Y-99935528D01*
X70268492Y-99881420D01*
X71655789Y-99881420D01*
X71685381Y-100125131D01*
X71719930Y-100244406D01*
X71753682Y-100360931D01*
X71858924Y-100582723D01*
X71998381Y-100784762D01*
X72168442Y-100961813D01*
X72364701Y-101109293D01*
X72364703Y-101109294D01*
X72582072Y-101223379D01*
X72698773Y-101262339D01*
X72814937Y-101301120D01*
X72936094Y-101320809D01*
X73057252Y-101340500D01*
X73057253Y-101340500D01*
X73241279Y-101340500D01*
X73241280Y-101340500D01*
X73424699Y-101325693D01*
X73663060Y-101266942D01*
X73888911Y-101170716D01*
X74096400Y-101039508D01*
X74280156Y-100876714D01*
X74435418Y-100686553D01*
X74558166Y-100473948D01*
X74645219Y-100244406D01*
X74694325Y-100003872D01*
X74701226Y-99832613D01*
X74704210Y-99758579D01*
X74699403Y-99718986D01*
X74674619Y-99514871D01*
X74606318Y-99279069D01*
X74501076Y-99057277D01*
X74361619Y-98855238D01*
X74191558Y-98678187D01*
X73995299Y-98530707D01*
X73995297Y-98530706D01*
X73995296Y-98530705D01*
X73777927Y-98416620D01*
X73545061Y-98338879D01*
X73302748Y-98299500D01*
X73302747Y-98299500D01*
X73118720Y-98299500D01*
X72935301Y-98314306D01*
X72935301Y-98314307D01*
X72696941Y-98373057D01*
X72471084Y-98469286D01*
X72263600Y-98600492D01*
X72079844Y-98763285D01*
X71924581Y-98953447D01*
X71801834Y-99166051D01*
X71714780Y-99395594D01*
X71665674Y-99636130D01*
X71655789Y-99881420D01*
X70268492Y-99881420D01*
X70285875Y-99876316D01*
X70472682Y-99780011D01*
X70637886Y-99650092D01*
X70775519Y-99491256D01*
X70880604Y-99309244D01*
X70949344Y-99110633D01*
X70979254Y-98902602D01*
X70969254Y-98692670D01*
X70919704Y-98488424D01*
X70910963Y-98469284D01*
X70832397Y-98297247D01*
X70710487Y-98126050D01*
X70710486Y-98126048D01*
X70618309Y-98038157D01*
X70607917Y-98028249D01*
X70577106Y-97981301D01*
X70570163Y-97925576D01*
X70588513Y-97872503D01*
X70628392Y-97832967D01*
X70693656Y-97792712D01*
X70817711Y-97668657D01*
X70817712Y-97668656D01*
X70909814Y-97519334D01*
X70964999Y-97352797D01*
X70975500Y-97250009D01*
X70975499Y-96449992D01*
X70964999Y-96347203D01*
X70909814Y-96180666D01*
X70835863Y-96060772D01*
X70817711Y-96031342D01*
X70693657Y-95907288D01*
X70544334Y-95815186D01*
X70377797Y-95760000D01*
X70275009Y-95749500D01*
X68924991Y-95749500D01*
X68822203Y-95760000D01*
X68655665Y-95815186D01*
X68506342Y-95907288D01*
X68382288Y-96031342D01*
X68290186Y-96180665D01*
X68235000Y-96347202D01*
X68224500Y-96449990D01*
X68224500Y-97250008D01*
X68235000Y-97352796D01*
X68290186Y-97519334D01*
X68382288Y-97668657D01*
X68506342Y-97792711D01*
X68569739Y-97831814D01*
X68611158Y-97873867D01*
X68628443Y-97930305D01*
X68617675Y-97988340D01*
X68581296Y-98034822D01*
X68562117Y-98049905D01*
X68424479Y-98208745D01*
X68319396Y-98390754D01*
X68250655Y-98589366D01*
X68220746Y-98797396D01*
X56526061Y-98797396D01*
X56411558Y-98678187D01*
X56215299Y-98530707D01*
X56215297Y-98530706D01*
X56215296Y-98530705D01*
X55997927Y-98416620D01*
X55765061Y-98338879D01*
X55522748Y-98299500D01*
X55522747Y-98299500D01*
X55338720Y-98299500D01*
X55155301Y-98314306D01*
X55155301Y-98314307D01*
X54916941Y-98373057D01*
X54691084Y-98469286D01*
X54483600Y-98600492D01*
X54299844Y-98763285D01*
X54144581Y-98953447D01*
X54021834Y-99166051D01*
X53934780Y-99395594D01*
X53885674Y-99636130D01*
X53875789Y-99881420D01*
X52500500Y-99881420D01*
X52500500Y-96010000D01*
X52824531Y-96010000D01*
X52844364Y-96236689D01*
X52903261Y-96456497D01*
X52999432Y-96662735D01*
X53129953Y-96849140D01*
X53290859Y-97010046D01*
X53477264Y-97140567D01*
X53477265Y-97140567D01*
X53477266Y-97140568D01*
X53683504Y-97236739D01*
X53903308Y-97295635D01*
X54130000Y-97315468D01*
X54356692Y-97295635D01*
X54576496Y-97236739D01*
X54782734Y-97140568D01*
X54969139Y-97010047D01*
X55130047Y-96849139D01*
X55260568Y-96662734D01*
X55356739Y-96456496D01*
X55415635Y-96236692D01*
X55435468Y-96010000D01*
X55415635Y-95783308D01*
X55356739Y-95563504D01*
X55260568Y-95357266D01*
X55130047Y-95170861D01*
X55130046Y-95170859D01*
X54969140Y-95009953D01*
X54782736Y-94879433D01*
X54724723Y-94852381D01*
X54672548Y-94806623D01*
X54653129Y-94739997D01*
X54672549Y-94673372D01*
X54724721Y-94627619D01*
X54782734Y-94600568D01*
X54969139Y-94470047D01*
X55130047Y-94309139D01*
X55260568Y-94122734D01*
X55356739Y-93916496D01*
X55415635Y-93696692D01*
X55435468Y-93470000D01*
X55415635Y-93243308D01*
X55356739Y-93023504D01*
X55260568Y-92817266D01*
X55130047Y-92630861D01*
X55130046Y-92630859D01*
X54969140Y-92469953D01*
X54782733Y-92339431D01*
X54724725Y-92312382D01*
X54672549Y-92266625D01*
X54653129Y-92200000D01*
X54672549Y-92133375D01*
X54724725Y-92087618D01*
X54782734Y-92060568D01*
X54969139Y-91930047D01*
X55130047Y-91769139D01*
X55260568Y-91582734D01*
X55356739Y-91376496D01*
X55415635Y-91156692D01*
X55435468Y-90930000D01*
X55415635Y-90703308D01*
X55356739Y-90483504D01*
X55260568Y-90277266D01*
X55130047Y-90090861D01*
X55130046Y-90090859D01*
X54969140Y-89929953D01*
X54782733Y-89799431D01*
X54724725Y-89772382D01*
X54672549Y-89726625D01*
X54653129Y-89660000D01*
X54672549Y-89593375D01*
X54724725Y-89547618D01*
X54782734Y-89520568D01*
X54969139Y-89390047D01*
X55130047Y-89229139D01*
X55260568Y-89042734D01*
X55356739Y-88836496D01*
X55415635Y-88616692D01*
X55435468Y-88390000D01*
X55415635Y-88163308D01*
X55356739Y-87943504D01*
X55260568Y-87737266D01*
X55130047Y-87550861D01*
X55130046Y-87550859D01*
X54969140Y-87389953D01*
X54782733Y-87259431D01*
X54724725Y-87232382D01*
X54672549Y-87186625D01*
X54653129Y-87120000D01*
X54672549Y-87053375D01*
X54724725Y-87007618D01*
X54782734Y-86980568D01*
X54969139Y-86850047D01*
X55130047Y-86689139D01*
X55260568Y-86502734D01*
X55356739Y-86296496D01*
X55415635Y-86076692D01*
X55435468Y-85850000D01*
X55415635Y-85623308D01*
X55356739Y-85403504D01*
X55260568Y-85197266D01*
X55130047Y-85010861D01*
X55130046Y-85010859D01*
X54969140Y-84849953D01*
X54782733Y-84719431D01*
X54724725Y-84692382D01*
X54672549Y-84646625D01*
X54653129Y-84580000D01*
X54672549Y-84513375D01*
X54724725Y-84467618D01*
X54782734Y-84440568D01*
X54969139Y-84310047D01*
X55130047Y-84149139D01*
X55260568Y-83962734D01*
X55356739Y-83756496D01*
X55415635Y-83536692D01*
X55435468Y-83310000D01*
X55415635Y-83083308D01*
X55356739Y-82863504D01*
X55260568Y-82657266D01*
X55236630Y-82623079D01*
X55130046Y-82470859D01*
X54969140Y-82309953D01*
X54782732Y-82179430D01*
X54724724Y-82152380D01*
X54672549Y-82106623D01*
X54653130Y-82039997D01*
X54672550Y-81973373D01*
X54724721Y-81927619D01*
X54782734Y-81900568D01*
X54969139Y-81770047D01*
X54979187Y-81759999D01*
X58544671Y-81759999D01*
X58546635Y-81789969D01*
X58546831Y-81802218D01*
X58545723Y-81835372D01*
X58556664Y-81944136D01*
X58557021Y-81948436D01*
X58563965Y-82054381D01*
X58570469Y-82087083D01*
X58572228Y-82098852D01*
X58575882Y-82135164D01*
X58600457Y-82238287D01*
X58601452Y-82242841D01*
X58621518Y-82343719D01*
X58633301Y-82378433D01*
X58636502Y-82389539D01*
X58645731Y-82428261D01*
X58656712Y-82456772D01*
X58682644Y-82524106D01*
X58684346Y-82528806D01*
X58716347Y-82623075D01*
X58716349Y-82623079D01*
X58734022Y-82658917D01*
X58738522Y-82669190D01*
X58754022Y-82709432D01*
X58801787Y-82796594D01*
X58804249Y-82801325D01*
X58846828Y-82887665D01*
X58846829Y-82887667D01*
X58846830Y-82887668D01*
X58870870Y-82923648D01*
X58876506Y-82932941D01*
X58898823Y-82973662D01*
X58955826Y-83051028D01*
X58959099Y-83055691D01*
X59010726Y-83132956D01*
X59041445Y-83167985D01*
X59048044Y-83176188D01*
X59077552Y-83216237D01*
X59142064Y-83282942D01*
X59146156Y-83287385D01*
X59172304Y-83317200D01*
X59205242Y-83354758D01*
X59242756Y-83387657D01*
X59250128Y-83394679D01*
X59281357Y-83426969D01*
X59287020Y-83432824D01*
X59357241Y-83488276D01*
X59362148Y-83492360D01*
X59427043Y-83549273D01*
X59471290Y-83578838D01*
X59479247Y-83584624D01*
X59523485Y-83619558D01*
X59597610Y-83663462D01*
X59603308Y-83667050D01*
X59658092Y-83703655D01*
X59672335Y-83713172D01*
X59723051Y-83738182D01*
X59731381Y-83742695D01*
X59782730Y-83773109D01*
X59808750Y-83784142D01*
X59859009Y-83805455D01*
X59865437Y-83808399D01*
X59936923Y-83843652D01*
X59993611Y-83862895D01*
X60002134Y-83866144D01*
X60060128Y-83890736D01*
X60133156Y-83910740D01*
X60136832Y-83911747D01*
X60143916Y-83913916D01*
X60216278Y-83938481D01*
X60278232Y-83950804D01*
X60286786Y-83952824D01*
X60350729Y-83970340D01*
X60426297Y-83980502D01*
X60433939Y-83981775D01*
X60505620Y-83996034D01*
X60571972Y-84000382D01*
X60580342Y-84001219D01*
X60640823Y-84009353D01*
X60649346Y-84010500D01*
X60649347Y-84010500D01*
X60722273Y-84010500D01*
X60730382Y-84010765D01*
X60800000Y-84015329D01*
X60869617Y-84010765D01*
X60872858Y-84010659D01*
X60875233Y-84010500D01*
X60875244Y-84010500D01*
X60948670Y-84005584D01*
X60948843Y-84005609D01*
X60948841Y-84005574D01*
X61069742Y-83997648D01*
X61094380Y-83996034D01*
X61094381Y-83996033D01*
X61099091Y-83995725D01*
X61100629Y-83995412D01*
X61100634Y-83995412D01*
X61243658Y-83966341D01*
X61383722Y-83938481D01*
X61383727Y-83938479D01*
X61386644Y-83937899D01*
X61395879Y-83935403D01*
X61395893Y-83935397D01*
X61395903Y-83935396D01*
X61530580Y-83888630D01*
X61531251Y-83888401D01*
X61602076Y-83864359D01*
X61663077Y-83843652D01*
X61663219Y-83843581D01*
X61677412Y-83837644D01*
X61680537Y-83836560D01*
X61804815Y-83773758D01*
X61805645Y-83773344D01*
X61927665Y-83713172D01*
X61930567Y-83711232D01*
X61943530Y-83703663D01*
X61949459Y-83700668D01*
X62061531Y-83623734D01*
X62062650Y-83622977D01*
X62074249Y-83615227D01*
X69245040Y-83615227D01*
X69264826Y-83803484D01*
X69323320Y-83983511D01*
X69417966Y-84147443D01*
X69544629Y-84288116D01*
X69697769Y-84399378D01*
X69870697Y-84476371D01*
X70055852Y-84515727D01*
X70055854Y-84515727D01*
X70245146Y-84515727D01*
X70245148Y-84515727D01*
X70368584Y-84489489D01*
X70430303Y-84476371D01*
X70603230Y-84399378D01*
X70754592Y-84289407D01*
X70789157Y-84271796D01*
X70827475Y-84265727D01*
X71987752Y-84265727D01*
X72026070Y-84271796D01*
X72060634Y-84289407D01*
X72211997Y-84399378D01*
X72211998Y-84399378D01*
X72211999Y-84399379D01*
X72384924Y-84476371D01*
X72570079Y-84515727D01*
X72570081Y-84515727D01*
X72759373Y-84515727D01*
X72759375Y-84515727D01*
X72882811Y-84489489D01*
X72944530Y-84476371D01*
X73117457Y-84399378D01*
X73270598Y-84288115D01*
X73333988Y-84217713D01*
X73389883Y-84182104D01*
X73456135Y-84180369D01*
X73513818Y-84213005D01*
X73610859Y-84310046D01*
X73738440Y-84399378D01*
X73797266Y-84440568D01*
X73855275Y-84467618D01*
X73907450Y-84513375D01*
X73926869Y-84580000D01*
X73907450Y-84646625D01*
X73855275Y-84692382D01*
X73797263Y-84719433D01*
X73610859Y-84849953D01*
X73449953Y-85010859D01*
X73319432Y-85197264D01*
X73223261Y-85403502D01*
X73164364Y-85623310D01*
X73144531Y-85850000D01*
X73164364Y-86076689D01*
X73223261Y-86296497D01*
X73319432Y-86502735D01*
X73449953Y-86689140D01*
X73610859Y-86850046D01*
X73797263Y-86980566D01*
X73797266Y-86980568D01*
X73855275Y-87007618D01*
X73907450Y-87053375D01*
X73926869Y-87120000D01*
X73907450Y-87186625D01*
X73855275Y-87232382D01*
X73797263Y-87259433D01*
X73610859Y-87389953D01*
X73449953Y-87550859D01*
X73319432Y-87737264D01*
X73223261Y-87943502D01*
X73164364Y-88163310D01*
X73144531Y-88390000D01*
X73164364Y-88616689D01*
X73223261Y-88836497D01*
X73319432Y-89042735D01*
X73449953Y-89229140D01*
X73610859Y-89390046D01*
X73797263Y-89520566D01*
X73797266Y-89520568D01*
X73855275Y-89547618D01*
X73907450Y-89593375D01*
X73926869Y-89660000D01*
X73907450Y-89726625D01*
X73855275Y-89772382D01*
X73797263Y-89799433D01*
X73610859Y-89929953D01*
X73449953Y-90090859D01*
X73319432Y-90277264D01*
X73223261Y-90483502D01*
X73164364Y-90703310D01*
X73144531Y-90930000D01*
X73164364Y-91156689D01*
X73223261Y-91376497D01*
X73319432Y-91582735D01*
X73449953Y-91769140D01*
X73610859Y-91930046D01*
X73797263Y-92060566D01*
X73797266Y-92060568D01*
X73855275Y-92087618D01*
X73907450Y-92133375D01*
X73926869Y-92200000D01*
X73907450Y-92266625D01*
X73855275Y-92312382D01*
X73797263Y-92339433D01*
X73610859Y-92469953D01*
X73449953Y-92630859D01*
X73319432Y-92817264D01*
X73223261Y-93023502D01*
X73164364Y-93243310D01*
X73144531Y-93470000D01*
X73164364Y-93696689D01*
X73223261Y-93916497D01*
X73319432Y-94122735D01*
X73449953Y-94309140D01*
X73610859Y-94470046D01*
X73797263Y-94600566D01*
X73797266Y-94600568D01*
X73855275Y-94627618D01*
X73907450Y-94673375D01*
X73926869Y-94740000D01*
X73907450Y-94806625D01*
X73855275Y-94852382D01*
X73797263Y-94879433D01*
X73610859Y-95009953D01*
X73449953Y-95170859D01*
X73319432Y-95357264D01*
X73223261Y-95563502D01*
X73164364Y-95783310D01*
X73144531Y-96010000D01*
X73164364Y-96236689D01*
X73223261Y-96456497D01*
X73319432Y-96662735D01*
X73449953Y-96849140D01*
X73610859Y-97010046D01*
X73797264Y-97140567D01*
X73797265Y-97140567D01*
X73797266Y-97140568D01*
X74003504Y-97236739D01*
X74223308Y-97295635D01*
X74450000Y-97315468D01*
X74676692Y-97295635D01*
X74896496Y-97236739D01*
X75102734Y-97140568D01*
X75289139Y-97010047D01*
X75450047Y-96849139D01*
X75580568Y-96662734D01*
X75676739Y-96456496D01*
X75735635Y-96236692D01*
X75751972Y-96049965D01*
X75766189Y-96009999D01*
X75751972Y-95970035D01*
X75735635Y-95783310D01*
X75735635Y-95783308D01*
X75676739Y-95563504D01*
X75580568Y-95357266D01*
X75450047Y-95170861D01*
X75450046Y-95170859D01*
X75289140Y-95009953D01*
X75102736Y-94879433D01*
X75044723Y-94852381D01*
X74992548Y-94806623D01*
X74973129Y-94739997D01*
X74992549Y-94673372D01*
X75044721Y-94627619D01*
X75102734Y-94600568D01*
X75289139Y-94470047D01*
X75450047Y-94309139D01*
X75580568Y-94122734D01*
X75676739Y-93916496D01*
X75735635Y-93696692D01*
X75751972Y-93509965D01*
X75766189Y-93469999D01*
X75751972Y-93430035D01*
X75735635Y-93243310D01*
X75735635Y-93243308D01*
X75676739Y-93023504D01*
X75580568Y-92817266D01*
X75450047Y-92630861D01*
X75450046Y-92630859D01*
X75289140Y-92469953D01*
X75102733Y-92339431D01*
X75044725Y-92312382D01*
X74992549Y-92266625D01*
X74973129Y-92200000D01*
X74992549Y-92133375D01*
X75044725Y-92087618D01*
X75102734Y-92060568D01*
X75289139Y-91930047D01*
X75450047Y-91769139D01*
X75580568Y-91582734D01*
X75676739Y-91376496D01*
X75735635Y-91156692D01*
X75751972Y-90969965D01*
X75766189Y-90930000D01*
X75751972Y-90890035D01*
X75735635Y-90703310D01*
X75735635Y-90703308D01*
X75676739Y-90483504D01*
X75580568Y-90277266D01*
X75450047Y-90090861D01*
X75450046Y-90090859D01*
X75289140Y-89929953D01*
X75102733Y-89799431D01*
X75044725Y-89772382D01*
X74992549Y-89726625D01*
X74973129Y-89660000D01*
X74992549Y-89593375D01*
X75044725Y-89547618D01*
X75102734Y-89520568D01*
X75289139Y-89390047D01*
X75450047Y-89229139D01*
X75580568Y-89042734D01*
X75676739Y-88836496D01*
X75735635Y-88616692D01*
X75751972Y-88429965D01*
X75766189Y-88389999D01*
X75751972Y-88350035D01*
X75735635Y-88163310D01*
X75735635Y-88163308D01*
X75676739Y-87943504D01*
X75580568Y-87737266D01*
X75450047Y-87550861D01*
X75450046Y-87550859D01*
X75289140Y-87389953D01*
X75102733Y-87259431D01*
X75044725Y-87232382D01*
X74992549Y-87186625D01*
X74973129Y-87120000D01*
X74992549Y-87053375D01*
X75044725Y-87007618D01*
X75102734Y-86980568D01*
X75289139Y-86850047D01*
X75450047Y-86689139D01*
X75580568Y-86502734D01*
X75676739Y-86296496D01*
X75735635Y-86076692D01*
X75751972Y-85889965D01*
X75766189Y-85850000D01*
X75751972Y-85810035D01*
X75735635Y-85623310D01*
X75735635Y-85623308D01*
X75676739Y-85403504D01*
X75580568Y-85197266D01*
X75450047Y-85010861D01*
X75450046Y-85010859D01*
X75289140Y-84849953D01*
X75102733Y-84719431D01*
X75044725Y-84692382D01*
X74992549Y-84646625D01*
X74973129Y-84580000D01*
X74992549Y-84513375D01*
X75044725Y-84467618D01*
X75102734Y-84440568D01*
X75289139Y-84310047D01*
X75450047Y-84149139D01*
X75580568Y-83962734D01*
X75676739Y-83756496D01*
X75735635Y-83536692D01*
X75744722Y-83432824D01*
X75751972Y-83349965D01*
X75766189Y-83310000D01*
X75751972Y-83270035D01*
X75736915Y-83097939D01*
X75735635Y-83083308D01*
X75676739Y-82863504D01*
X75580568Y-82657266D01*
X75556630Y-82623079D01*
X75450046Y-82470859D01*
X75289140Y-82309953D01*
X75102732Y-82179430D01*
X75044724Y-82152380D01*
X74992549Y-82106623D01*
X74973130Y-82039997D01*
X74992550Y-81973373D01*
X75044721Y-81927619D01*
X75102734Y-81900568D01*
X75289139Y-81770047D01*
X75450047Y-81609139D01*
X75580568Y-81422734D01*
X75676739Y-81216496D01*
X75735635Y-80996692D01*
X75742700Y-80915944D01*
X75751972Y-80809965D01*
X75766189Y-80770000D01*
X75751972Y-80730035D01*
X75735635Y-80543310D01*
X75735635Y-80543308D01*
X75676739Y-80323504D01*
X75580568Y-80117266D01*
X75554458Y-80079977D01*
X75450046Y-79930859D01*
X75289140Y-79769953D01*
X75102733Y-79639431D01*
X75044725Y-79612382D01*
X74992549Y-79566625D01*
X74973129Y-79500000D01*
X74992549Y-79433375D01*
X75044725Y-79387618D01*
X75102734Y-79360568D01*
X75289139Y-79230047D01*
X75450047Y-79069139D01*
X75580568Y-78882734D01*
X75676739Y-78676496D01*
X75735635Y-78456692D01*
X75751972Y-78269965D01*
X75766189Y-78229999D01*
X75751972Y-78190035D01*
X75735635Y-78003310D01*
X75735635Y-78003308D01*
X75676739Y-77783504D01*
X75580568Y-77577266D01*
X75450047Y-77390861D01*
X75450046Y-77390859D01*
X75289140Y-77229953D01*
X75102733Y-77099431D01*
X75044725Y-77072382D01*
X74992549Y-77026625D01*
X74973129Y-76960000D01*
X74992549Y-76893375D01*
X75044725Y-76847618D01*
X75102734Y-76820568D01*
X75289139Y-76690047D01*
X75450047Y-76529139D01*
X75580568Y-76342734D01*
X75676739Y-76136496D01*
X75735635Y-75916692D01*
X75751972Y-75729965D01*
X75766189Y-75690000D01*
X75751972Y-75650035D01*
X75735635Y-75463310D01*
X75735635Y-75463308D01*
X75676739Y-75243504D01*
X75580568Y-75037266D01*
X75450047Y-74850861D01*
X75450046Y-74850859D01*
X75289140Y-74689953D01*
X75102733Y-74559431D01*
X75044725Y-74532382D01*
X74992549Y-74486625D01*
X74973129Y-74420000D01*
X74992549Y-74353375D01*
X75044725Y-74307618D01*
X75102734Y-74280568D01*
X75289139Y-74150047D01*
X75450047Y-73989139D01*
X75580568Y-73802734D01*
X75676739Y-73596496D01*
X75735635Y-73376692D01*
X75751972Y-73189965D01*
X75766189Y-73150000D01*
X75751972Y-73110035D01*
X75735635Y-72923310D01*
X75735635Y-72923308D01*
X75676739Y-72703504D01*
X75580568Y-72497266D01*
X75450047Y-72310861D01*
X75450046Y-72310859D01*
X75289140Y-72149953D01*
X75102733Y-72019431D01*
X75044725Y-71992382D01*
X74992549Y-71946625D01*
X74973129Y-71880000D01*
X74992549Y-71813375D01*
X75044725Y-71767618D01*
X75102734Y-71740568D01*
X75289139Y-71610047D01*
X75450047Y-71449139D01*
X75580568Y-71262734D01*
X75676739Y-71056496D01*
X75735635Y-70836692D01*
X75751972Y-70649965D01*
X75766189Y-70610000D01*
X75751972Y-70570035D01*
X75735635Y-70383310D01*
X75735635Y-70383308D01*
X75676739Y-70163504D01*
X75580568Y-69957266D01*
X75450047Y-69770861D01*
X75450046Y-69770859D01*
X75289140Y-69609953D01*
X75102733Y-69479431D01*
X75044725Y-69452382D01*
X74992549Y-69406625D01*
X74973129Y-69340000D01*
X74992549Y-69273375D01*
X75044725Y-69227618D01*
X75102734Y-69200568D01*
X75289139Y-69070047D01*
X75450047Y-68909139D01*
X75580568Y-68722734D01*
X75676739Y-68516496D01*
X75735635Y-68296692D01*
X75751972Y-68109965D01*
X75766189Y-68070000D01*
X75751972Y-68030035D01*
X75735635Y-67843310D01*
X75735635Y-67843308D01*
X75676739Y-67623504D01*
X75580568Y-67417266D01*
X75450047Y-67230861D01*
X75450046Y-67230859D01*
X75289140Y-67069953D01*
X75102735Y-66939432D01*
X74896497Y-66843261D01*
X74676689Y-66784364D01*
X74450000Y-66764531D01*
X74223310Y-66784364D01*
X74003502Y-66843261D01*
X73797264Y-66939432D01*
X73610859Y-67069953D01*
X73449953Y-67230859D01*
X73319432Y-67417264D01*
X73223261Y-67623502D01*
X73164364Y-67843310D01*
X73144531Y-68070000D01*
X73164364Y-68296689D01*
X73223261Y-68516497D01*
X73319432Y-68722735D01*
X73449953Y-68909140D01*
X73610859Y-69070046D01*
X73797263Y-69200566D01*
X73797266Y-69200568D01*
X73855275Y-69227618D01*
X73907450Y-69273375D01*
X73926869Y-69340000D01*
X73907450Y-69406625D01*
X73855275Y-69452382D01*
X73797263Y-69479433D01*
X73610859Y-69609953D01*
X73449953Y-69770859D01*
X73319432Y-69957264D01*
X73223261Y-70163502D01*
X73164364Y-70383310D01*
X73144531Y-70609999D01*
X73164364Y-70836689D01*
X73223261Y-71056497D01*
X73319432Y-71262735D01*
X73449953Y-71449140D01*
X73610859Y-71610046D01*
X73797263Y-71740566D01*
X73797266Y-71740568D01*
X73855275Y-71767618D01*
X73907450Y-71813375D01*
X73926869Y-71880000D01*
X73907450Y-71946625D01*
X73855275Y-71992382D01*
X73797263Y-72019433D01*
X73610859Y-72149953D01*
X73449953Y-72310859D01*
X73319432Y-72497264D01*
X73223261Y-72703502D01*
X73164364Y-72923310D01*
X73144531Y-73149999D01*
X73164364Y-73376689D01*
X73223261Y-73596497D01*
X73319432Y-73802735D01*
X73449953Y-73989140D01*
X73610859Y-74150046D01*
X73797263Y-74280566D01*
X73797266Y-74280568D01*
X73855275Y-74307618D01*
X73907450Y-74353375D01*
X73926869Y-74420000D01*
X73907450Y-74486625D01*
X73855275Y-74532382D01*
X73797263Y-74559433D01*
X73610859Y-74689953D01*
X73449953Y-74850859D01*
X73319432Y-75037264D01*
X73223261Y-75243502D01*
X73164364Y-75463310D01*
X73144531Y-75689999D01*
X73164364Y-75916689D01*
X73223261Y-76136497D01*
X73319432Y-76342735D01*
X73449953Y-76529140D01*
X73610859Y-76690046D01*
X73797263Y-76820566D01*
X73797266Y-76820568D01*
X73855275Y-76847618D01*
X73907450Y-76893375D01*
X73926869Y-76960000D01*
X73907450Y-77026625D01*
X73855275Y-77072382D01*
X73797263Y-77099433D01*
X73610859Y-77229953D01*
X73449953Y-77390859D01*
X73319432Y-77577264D01*
X73223261Y-77783502D01*
X73164364Y-78003310D01*
X73144531Y-78229999D01*
X73164364Y-78456689D01*
X73223261Y-78676497D01*
X73319432Y-78882735D01*
X73449953Y-79069140D01*
X73610859Y-79230046D01*
X73797263Y-79360566D01*
X73797266Y-79360568D01*
X73855275Y-79387618D01*
X73907450Y-79433375D01*
X73926869Y-79500000D01*
X73907450Y-79566625D01*
X73855275Y-79612382D01*
X73797263Y-79639433D01*
X73610859Y-79769953D01*
X73449953Y-79930859D01*
X73319432Y-80117264D01*
X73223261Y-80323502D01*
X73164364Y-80543310D01*
X73144531Y-80769999D01*
X73164364Y-80996689D01*
X73223261Y-81216497D01*
X73319432Y-81422735D01*
X73449953Y-81609140D01*
X73610859Y-81770046D01*
X73752506Y-81869227D01*
X73797266Y-81900568D01*
X73855273Y-81927617D01*
X73907449Y-81973373D01*
X73926869Y-82039997D01*
X73907451Y-82106622D01*
X73855276Y-82152380D01*
X73797266Y-82179431D01*
X73610859Y-82309953D01*
X73449953Y-82470859D01*
X73319430Y-82657267D01*
X73269089Y-82765222D01*
X73228420Y-82813976D01*
X73168951Y-82836210D01*
X73106272Y-82826096D01*
X72969548Y-82765222D01*
X72944530Y-82754083D01*
X72944529Y-82754082D01*
X72944525Y-82754081D01*
X72759375Y-82714727D01*
X72759373Y-82714727D01*
X72570081Y-82714727D01*
X72570079Y-82714727D01*
X72384924Y-82754082D01*
X72211999Y-82831074D01*
X72154801Y-82872631D01*
X72060634Y-82941046D01*
X72026070Y-82958658D01*
X71987752Y-82964727D01*
X70827475Y-82964727D01*
X70789157Y-82958658D01*
X70754592Y-82941046D01*
X70603230Y-82831076D01*
X70603229Y-82831075D01*
X70603227Y-82831074D01*
X70430302Y-82754082D01*
X70245148Y-82714727D01*
X70245146Y-82714727D01*
X70055854Y-82714727D01*
X70055852Y-82714727D01*
X69870697Y-82754082D01*
X69697769Y-82831075D01*
X69544629Y-82942337D01*
X69417966Y-83083010D01*
X69323320Y-83246942D01*
X69264826Y-83426969D01*
X69245040Y-83615227D01*
X62074249Y-83615227D01*
X62172957Y-83549273D01*
X62178069Y-83544788D01*
X62189660Y-83535778D01*
X62197869Y-83530144D01*
X62296204Y-83441203D01*
X62297489Y-83440059D01*
X62394758Y-83354758D01*
X62401434Y-83347144D01*
X62411493Y-83336931D01*
X62421333Y-83328032D01*
X62504806Y-83229298D01*
X62506039Y-83227864D01*
X62589273Y-83132957D01*
X62596748Y-83121768D01*
X62605144Y-83110618D01*
X62615865Y-83097939D01*
X62683612Y-82991814D01*
X62684944Y-82989774D01*
X62753172Y-82887665D01*
X62760589Y-82872622D01*
X62767284Y-82860744D01*
X62777991Y-82843973D01*
X62777990Y-82843973D01*
X62777993Y-82843970D01*
X62829611Y-82732733D01*
X62830806Y-82730236D01*
X62883652Y-82623077D01*
X62890108Y-82604056D01*
X62895047Y-82591724D01*
X62904823Y-82570658D01*
X62940155Y-82456754D01*
X62941164Y-82453651D01*
X62949783Y-82428261D01*
X62978481Y-82343722D01*
X62983046Y-82320768D01*
X62986228Y-82308229D01*
X62994093Y-82282879D01*
X63013383Y-82168516D01*
X63014023Y-82165033D01*
X63036034Y-82054380D01*
X63037781Y-82027708D01*
X63039240Y-82015222D01*
X63044209Y-81985770D01*
X63047973Y-81873173D01*
X63048169Y-81869227D01*
X63050389Y-81835369D01*
X63055329Y-81760000D01*
X63053363Y-81730022D01*
X63053167Y-81717803D01*
X63054277Y-81684631D01*
X63043336Y-81575880D01*
X63042980Y-81571584D01*
X63036034Y-81465624D01*
X63036034Y-81465623D01*
X63036034Y-81465620D01*
X63029528Y-81432912D01*
X63027770Y-81421143D01*
X63024118Y-81384842D01*
X63024118Y-81384838D01*
X62999532Y-81281675D01*
X62998556Y-81277210D01*
X62978481Y-81176278D01*
X62966695Y-81141559D01*
X62963496Y-81130456D01*
X62954269Y-81091739D01*
X62917661Y-80996689D01*
X62917351Y-80995884D01*
X62915655Y-80991200D01*
X62890109Y-80915944D01*
X62883652Y-80896923D01*
X62865969Y-80861065D01*
X62861476Y-80850808D01*
X62845977Y-80810566D01*
X62798196Y-80723378D01*
X62795747Y-80718671D01*
X62753172Y-80632336D01*
X62729120Y-80596341D01*
X62723503Y-80587081D01*
X62701175Y-80546335D01*
X62644169Y-80468966D01*
X62640897Y-80464304D01*
X62589273Y-80387043D01*
X62558553Y-80352013D01*
X62551953Y-80343809D01*
X62536992Y-80323504D01*
X62522446Y-80303762D01*
X62457934Y-80237056D01*
X62453842Y-80232613D01*
X62410378Y-80183053D01*
X62394758Y-80165242D01*
X62370403Y-80143883D01*
X62357236Y-80132335D01*
X62349865Y-80125314D01*
X62312980Y-80087176D01*
X62242768Y-80031731D01*
X62237857Y-80027643D01*
X62183600Y-79980061D01*
X62172957Y-79970727D01*
X62172953Y-79970724D01*
X62128701Y-79941154D01*
X62120746Y-79935370D01*
X62076517Y-79900443D01*
X62002387Y-79856536D01*
X61996690Y-79852948D01*
X61927668Y-79806829D01*
X61876949Y-79781816D01*
X61868604Y-79777295D01*
X61817272Y-79746891D01*
X61756754Y-79721229D01*
X61740997Y-79714548D01*
X61734570Y-79711603D01*
X61663082Y-79676349D01*
X61606409Y-79657111D01*
X61597862Y-79653853D01*
X61539874Y-79629265D01*
X61539875Y-79629265D01*
X61539872Y-79629264D01*
X61502862Y-79619126D01*
X61463154Y-79608248D01*
X61456057Y-79606073D01*
X61383720Y-79581518D01*
X61321777Y-79569197D01*
X61313212Y-79567175D01*
X61295475Y-79562316D01*
X61249269Y-79549659D01*
X61173717Y-79539497D01*
X61166058Y-79538222D01*
X61094375Y-79523965D01*
X61028070Y-79519619D01*
X61019654Y-79518779D01*
X60950653Y-79509500D01*
X60877727Y-79509500D01*
X60869617Y-79509234D01*
X60866578Y-79509034D01*
X60800000Y-79504670D01*
X60733421Y-79509034D01*
X60730382Y-79509234D01*
X60727136Y-79509340D01*
X60651157Y-79514426D01*
X60650987Y-79514437D01*
X60500913Y-79524274D01*
X60499369Y-79524587D01*
X60499366Y-79524588D01*
X60356594Y-79553606D01*
X60356146Y-79553696D01*
X60213402Y-79582090D01*
X60204107Y-79584602D01*
X60204096Y-79584604D01*
X60069651Y-79631287D01*
X60068837Y-79631567D01*
X59936916Y-79676350D01*
X59936755Y-79676430D01*
X59922619Y-79682343D01*
X59919465Y-79683438D01*
X59795241Y-79746210D01*
X59794162Y-79746749D01*
X59672326Y-79806833D01*
X59669419Y-79808775D01*
X59656483Y-79816328D01*
X59650543Y-79819330D01*
X59538584Y-79896185D01*
X59537298Y-79897056D01*
X59427044Y-79970725D01*
X59421923Y-79975217D01*
X59410348Y-79984215D01*
X59402129Y-79989857D01*
X59303881Y-80078716D01*
X59302465Y-80079977D01*
X59205240Y-80165243D01*
X59198557Y-80172863D01*
X59188522Y-80183053D01*
X59178665Y-80191969D01*
X59095299Y-80290574D01*
X59093836Y-80292274D01*
X59010726Y-80387043D01*
X59003250Y-80398231D01*
X58994850Y-80409386D01*
X58984136Y-80422058D01*
X58916420Y-80528132D01*
X58915005Y-80530297D01*
X58846828Y-80632334D01*
X58839414Y-80647368D01*
X58832725Y-80659238D01*
X58822008Y-80676026D01*
X58770412Y-80787212D01*
X58769146Y-80789858D01*
X58716347Y-80896925D01*
X58709890Y-80915944D01*
X58704954Y-80928270D01*
X58695178Y-80949337D01*
X58677031Y-81007836D01*
X58659841Y-81063250D01*
X58658839Y-81066334D01*
X58621519Y-81176273D01*
X58616952Y-81199234D01*
X58613768Y-81211776D01*
X58605906Y-81237120D01*
X58586622Y-81351434D01*
X58585968Y-81354996D01*
X58563965Y-81465623D01*
X58562218Y-81492273D01*
X58560758Y-81504780D01*
X58555791Y-81534230D01*
X58552027Y-81646779D01*
X58551831Y-81650742D01*
X58544671Y-81759999D01*
X54979187Y-81759999D01*
X55130047Y-81609139D01*
X55260568Y-81422734D01*
X55356739Y-81216496D01*
X55415635Y-80996692D01*
X55435468Y-80770000D01*
X55415635Y-80543308D01*
X55356739Y-80323504D01*
X55260568Y-80117266D01*
X55234458Y-80079977D01*
X55130046Y-79930859D01*
X54969140Y-79769953D01*
X54782733Y-79639431D01*
X54724725Y-79612382D01*
X54672549Y-79566625D01*
X54653129Y-79500000D01*
X54672549Y-79433375D01*
X54724725Y-79387618D01*
X54782734Y-79360568D01*
X54969139Y-79230047D01*
X55130047Y-79069139D01*
X55260568Y-78882734D01*
X55356739Y-78676496D01*
X55415635Y-78456692D01*
X55435468Y-78230000D01*
X55415635Y-78003308D01*
X55356739Y-77783504D01*
X55260568Y-77577266D01*
X55130047Y-77390861D01*
X55130046Y-77390859D01*
X54969140Y-77229953D01*
X54782733Y-77099431D01*
X54724725Y-77072382D01*
X54672549Y-77026625D01*
X54653129Y-76960000D01*
X54672549Y-76893375D01*
X54724725Y-76847618D01*
X54782734Y-76820568D01*
X54969139Y-76690047D01*
X55130047Y-76529139D01*
X55260568Y-76342734D01*
X55356739Y-76136496D01*
X55415635Y-75916692D01*
X55435468Y-75690000D01*
X55415635Y-75463308D01*
X55356739Y-75243504D01*
X55260568Y-75037266D01*
X55130047Y-74850861D01*
X55130046Y-74850859D01*
X54969140Y-74689953D01*
X54782733Y-74559431D01*
X54724725Y-74532382D01*
X54672549Y-74486625D01*
X54653129Y-74420000D01*
X54672549Y-74353375D01*
X54724725Y-74307618D01*
X54782734Y-74280568D01*
X54969139Y-74150047D01*
X55130047Y-73989139D01*
X55260568Y-73802734D01*
X55356739Y-73596496D01*
X55415635Y-73376692D01*
X55435468Y-73150000D01*
X55415635Y-72923308D01*
X55356739Y-72703504D01*
X55260568Y-72497266D01*
X55130047Y-72310861D01*
X55130046Y-72310859D01*
X54969140Y-72149953D01*
X54782733Y-72019431D01*
X54724725Y-71992382D01*
X54672549Y-71946625D01*
X54653129Y-71880000D01*
X54672549Y-71813375D01*
X54724725Y-71767618D01*
X54782734Y-71740568D01*
X54969139Y-71610047D01*
X55130047Y-71449139D01*
X55260568Y-71262734D01*
X55356739Y-71056496D01*
X55415635Y-70836692D01*
X55435468Y-70610000D01*
X55415635Y-70383308D01*
X55356739Y-70163504D01*
X55260568Y-69957266D01*
X55130047Y-69770861D01*
X55130046Y-69770859D01*
X54969140Y-69609953D01*
X54782733Y-69479431D01*
X54724725Y-69452382D01*
X54672549Y-69406625D01*
X54653129Y-69340000D01*
X54672549Y-69273375D01*
X54724725Y-69227618D01*
X54782734Y-69200568D01*
X54969139Y-69070047D01*
X55130047Y-68909139D01*
X55260568Y-68722734D01*
X55356739Y-68516496D01*
X55415635Y-68296692D01*
X55435468Y-68070000D01*
X55415635Y-67843308D01*
X55356739Y-67623504D01*
X55260568Y-67417266D01*
X55130047Y-67230861D01*
X55130046Y-67230859D01*
X54969140Y-67069953D01*
X54782736Y-66939433D01*
X54782730Y-66939430D01*
X54724132Y-66912105D01*
X54671958Y-66866348D01*
X54652539Y-66799723D01*
X54671959Y-66733098D01*
X54724135Y-66687342D01*
X54782479Y-66660136D01*
X54855472Y-66609025D01*
X54130001Y-65883553D01*
X54130000Y-65883553D01*
X53404526Y-66609025D01*
X53404526Y-66609026D01*
X53477515Y-66660133D01*
X53535865Y-66687342D01*
X53588040Y-66733099D01*
X53607460Y-66799723D01*
X53588041Y-66866348D01*
X53535866Y-66912105D01*
X53477267Y-66939430D01*
X53290859Y-67069953D01*
X53129953Y-67230859D01*
X52999432Y-67417264D01*
X52903261Y-67623502D01*
X52844364Y-67843310D01*
X52824531Y-68069999D01*
X52844364Y-68296689D01*
X52903261Y-68516497D01*
X52999432Y-68722735D01*
X53129953Y-68909140D01*
X53290859Y-69070046D01*
X53477263Y-69200566D01*
X53477266Y-69200568D01*
X53535275Y-69227618D01*
X53587450Y-69273375D01*
X53606869Y-69340000D01*
X53587450Y-69406625D01*
X53535275Y-69452382D01*
X53477263Y-69479433D01*
X53290859Y-69609953D01*
X53129953Y-69770859D01*
X52999432Y-69957264D01*
X52903261Y-70163502D01*
X52844364Y-70383310D01*
X52824531Y-70609999D01*
X52844364Y-70836689D01*
X52903261Y-71056497D01*
X52999432Y-71262735D01*
X53129953Y-71449140D01*
X53290859Y-71610046D01*
X53477263Y-71740566D01*
X53477266Y-71740568D01*
X53535275Y-71767618D01*
X53587450Y-71813375D01*
X53606869Y-71880000D01*
X53587450Y-71946625D01*
X53535275Y-71992382D01*
X53477263Y-72019433D01*
X53290859Y-72149953D01*
X53129953Y-72310859D01*
X52999432Y-72497264D01*
X52903261Y-72703502D01*
X52844364Y-72923310D01*
X52824531Y-73149999D01*
X52844364Y-73376689D01*
X52903261Y-73596497D01*
X52999432Y-73802735D01*
X53129953Y-73989140D01*
X53290859Y-74150046D01*
X53477263Y-74280566D01*
X53477266Y-74280568D01*
X53535275Y-74307618D01*
X53587450Y-74353375D01*
X53606869Y-74420000D01*
X53587450Y-74486625D01*
X53535275Y-74532382D01*
X53477263Y-74559433D01*
X53290859Y-74689953D01*
X53129953Y-74850859D01*
X52999432Y-75037264D01*
X52903261Y-75243502D01*
X52844364Y-75463310D01*
X52824531Y-75689999D01*
X52844364Y-75916689D01*
X52903261Y-76136497D01*
X52999432Y-76342735D01*
X53129953Y-76529140D01*
X53290859Y-76690046D01*
X53477263Y-76820566D01*
X53477266Y-76820568D01*
X53535275Y-76847618D01*
X53587450Y-76893375D01*
X53606869Y-76960000D01*
X53587450Y-77026625D01*
X53535275Y-77072382D01*
X53477263Y-77099433D01*
X53290859Y-77229953D01*
X53129953Y-77390859D01*
X52999432Y-77577264D01*
X52903261Y-77783502D01*
X52844364Y-78003310D01*
X52824531Y-78229999D01*
X52844364Y-78456689D01*
X52903261Y-78676497D01*
X52999432Y-78882735D01*
X53129953Y-79069140D01*
X53290859Y-79230046D01*
X53477263Y-79360566D01*
X53477266Y-79360568D01*
X53535275Y-79387618D01*
X53587450Y-79433375D01*
X53606869Y-79500000D01*
X53587450Y-79566625D01*
X53535275Y-79612382D01*
X53477263Y-79639433D01*
X53290859Y-79769953D01*
X53129953Y-79930859D01*
X52999432Y-80117264D01*
X52903261Y-80323502D01*
X52844364Y-80543310D01*
X52824531Y-80769999D01*
X52844364Y-80996689D01*
X52903261Y-81216497D01*
X52999432Y-81422735D01*
X53129953Y-81609140D01*
X53290859Y-81770046D01*
X53432506Y-81869227D01*
X53477266Y-81900568D01*
X53535273Y-81927617D01*
X53587449Y-81973373D01*
X53606869Y-82039997D01*
X53587451Y-82106622D01*
X53535276Y-82152380D01*
X53477266Y-82179431D01*
X53290859Y-82309953D01*
X53129953Y-82470859D01*
X52999432Y-82657264D01*
X52903261Y-82863502D01*
X52844364Y-83083310D01*
X52824531Y-83310000D01*
X52844364Y-83536689D01*
X52903261Y-83756497D01*
X52999432Y-83962735D01*
X53129953Y-84149140D01*
X53290859Y-84310046D01*
X53418440Y-84399378D01*
X53477266Y-84440568D01*
X53535275Y-84467618D01*
X53587450Y-84513375D01*
X53606869Y-84580000D01*
X53587450Y-84646625D01*
X53535275Y-84692382D01*
X53477263Y-84719433D01*
X53290859Y-84849953D01*
X53129953Y-85010859D01*
X52999432Y-85197264D01*
X52903261Y-85403502D01*
X52844364Y-85623310D01*
X52824531Y-85850000D01*
X52844364Y-86076689D01*
X52903261Y-86296497D01*
X52999432Y-86502735D01*
X53129953Y-86689140D01*
X53290859Y-86850046D01*
X53477263Y-86980566D01*
X53477266Y-86980568D01*
X53535275Y-87007618D01*
X53587450Y-87053375D01*
X53606869Y-87120000D01*
X53587450Y-87186625D01*
X53535275Y-87232382D01*
X53477263Y-87259433D01*
X53290859Y-87389953D01*
X53129953Y-87550859D01*
X52999432Y-87737264D01*
X52903261Y-87943502D01*
X52844364Y-88163310D01*
X52824531Y-88390000D01*
X52844364Y-88616689D01*
X52903261Y-88836497D01*
X52999432Y-89042735D01*
X53129953Y-89229140D01*
X53290859Y-89390046D01*
X53477263Y-89520566D01*
X53477266Y-89520568D01*
X53535275Y-89547618D01*
X53587450Y-89593375D01*
X53606869Y-89660000D01*
X53587450Y-89726625D01*
X53535275Y-89772382D01*
X53477263Y-89799433D01*
X53290859Y-89929953D01*
X53129953Y-90090859D01*
X52999432Y-90277264D01*
X52903261Y-90483502D01*
X52844364Y-90703310D01*
X52824531Y-90930000D01*
X52844364Y-91156689D01*
X52903261Y-91376497D01*
X52999432Y-91582735D01*
X53129953Y-91769140D01*
X53290859Y-91930046D01*
X53477263Y-92060566D01*
X53477266Y-92060568D01*
X53535275Y-92087618D01*
X53587450Y-92133375D01*
X53606869Y-92200000D01*
X53587450Y-92266625D01*
X53535275Y-92312382D01*
X53477263Y-92339433D01*
X53290859Y-92469953D01*
X53129953Y-92630859D01*
X52999432Y-92817264D01*
X52903261Y-93023502D01*
X52844364Y-93243310D01*
X52824531Y-93470000D01*
X52844364Y-93696689D01*
X52903261Y-93916497D01*
X52999432Y-94122735D01*
X53129953Y-94309140D01*
X53290859Y-94470046D01*
X53477263Y-94600566D01*
X53477266Y-94600568D01*
X53535275Y-94627618D01*
X53587450Y-94673375D01*
X53606869Y-94740000D01*
X53587450Y-94806625D01*
X53535275Y-94852382D01*
X53477263Y-94879433D01*
X53290859Y-95009953D01*
X53129953Y-95170859D01*
X52999432Y-95357264D01*
X52903261Y-95563502D01*
X52844364Y-95783310D01*
X52824531Y-96010000D01*
X52500500Y-96010000D01*
X52500500Y-65530000D01*
X52825033Y-65530000D01*
X52844858Y-65756602D01*
X52903733Y-65976326D01*
X52999866Y-66182484D01*
X53050972Y-66255471D01*
X53050974Y-66255472D01*
X53776446Y-65530001D01*
X53776446Y-65530000D01*
X53776445Y-65529999D01*
X54483553Y-65529999D01*
X55209025Y-66255472D01*
X55260134Y-66182480D01*
X55356266Y-65976326D01*
X55415141Y-65756602D01*
X55434966Y-65530000D01*
X55419218Y-65350000D01*
X56819303Y-65350000D01*
X56822400Y-65387393D01*
X56881493Y-65620744D01*
X56978184Y-65841180D01*
X57109848Y-66042707D01*
X57272873Y-66219798D01*
X57462835Y-66367651D01*
X57674539Y-66482219D01*
X57902207Y-66560380D01*
X58009999Y-66578366D01*
X58010000Y-66578366D01*
X58510000Y-66578366D01*
X58617792Y-66560380D01*
X58845460Y-66482219D01*
X59057164Y-66367651D01*
X59247122Y-66219801D01*
X59410155Y-66042700D01*
X59425892Y-66018614D01*
X59470683Y-65977381D01*
X59529700Y-65962435D01*
X59588718Y-65977380D01*
X59633509Y-66018613D01*
X59633510Y-66018614D01*
X59649449Y-66043010D01*
X59812537Y-66220171D01*
X60002561Y-66368072D01*
X60214336Y-66482679D01*
X60442087Y-66560866D01*
X60679601Y-66600500D01*
X60920399Y-66600500D01*
X61157913Y-66560866D01*
X61385664Y-66482679D01*
X61597439Y-66368072D01*
X61739930Y-66257166D01*
X61792358Y-66233313D01*
X61849907Y-66235720D01*
X61900160Y-66263868D01*
X61932273Y-66311685D01*
X61943702Y-66342328D01*
X61943703Y-66342330D01*
X61943704Y-66342331D01*
X62029954Y-66457546D01*
X62145169Y-66543796D01*
X62280017Y-66594091D01*
X62339627Y-66600500D01*
X64340372Y-66600499D01*
X64399983Y-66594091D01*
X64534831Y-66543796D01*
X64650046Y-66457546D01*
X64736296Y-66342331D01*
X64786591Y-66207483D01*
X64793000Y-66147873D01*
X64792999Y-64052128D01*
X64786591Y-63992517D01*
X64736296Y-63857669D01*
X64650046Y-63742454D01*
X64534831Y-63656204D01*
X64399983Y-63605909D01*
X64340373Y-63599500D01*
X64340369Y-63599500D01*
X62339630Y-63599500D01*
X62280015Y-63605909D01*
X62145169Y-63656204D01*
X62029954Y-63742454D01*
X61943703Y-63857670D01*
X61932273Y-63888315D01*
X61900159Y-63936131D01*
X61849907Y-63964279D01*
X61792358Y-63966686D01*
X61739930Y-63942833D01*
X61731319Y-63936131D01*
X61597439Y-63831928D01*
X61385664Y-63717321D01*
X61385660Y-63717319D01*
X61385659Y-63717319D01*
X61157915Y-63639134D01*
X60920399Y-63599500D01*
X60679601Y-63599500D01*
X60442084Y-63639134D01*
X60214340Y-63717319D01*
X60214336Y-63717320D01*
X60214336Y-63717321D01*
X60073152Y-63793725D01*
X60002559Y-63831929D01*
X59812536Y-63979829D01*
X59649446Y-64156992D01*
X59633508Y-64181388D01*
X59588717Y-64222620D01*
X59529699Y-64237564D01*
X59470682Y-64222618D01*
X59425892Y-64181385D01*
X59410153Y-64157294D01*
X59247126Y-63980201D01*
X59057164Y-63832348D01*
X58845460Y-63717780D01*
X58617792Y-63639619D01*
X58510000Y-63621633D01*
X58510000Y-66578366D01*
X58010000Y-66578366D01*
X58010000Y-65350000D01*
X56819303Y-65350000D01*
X55419218Y-65350000D01*
X55415141Y-65303397D01*
X55356266Y-65083673D01*
X55260133Y-64877515D01*
X55240867Y-64850000D01*
X56819302Y-64850000D01*
X58010000Y-64850000D01*
X58010000Y-63621634D01*
X58009999Y-63621633D01*
X57902207Y-63639619D01*
X57674539Y-63717780D01*
X57462835Y-63832348D01*
X57272873Y-63980201D01*
X57109848Y-64157292D01*
X56978184Y-64358819D01*
X56881493Y-64579255D01*
X56822400Y-64812606D01*
X56819302Y-64850000D01*
X55240867Y-64850000D01*
X55209025Y-64804526D01*
X54483553Y-65529998D01*
X54483553Y-65529999D01*
X53776445Y-65529999D01*
X53050973Y-64804526D01*
X53050973Y-64804527D01*
X52999865Y-64877516D01*
X52903733Y-65083672D01*
X52844858Y-65303397D01*
X52825033Y-65530000D01*
X52500500Y-65530000D01*
X52500500Y-62989999D01*
X52824531Y-62989999D01*
X52844364Y-63216689D01*
X52903261Y-63436497D01*
X52999432Y-63642735D01*
X53129953Y-63829140D01*
X53290859Y-63990046D01*
X53477264Y-64120567D01*
X53477265Y-64120567D01*
X53477266Y-64120568D01*
X53535865Y-64147893D01*
X53588040Y-64193650D01*
X53607460Y-64260275D01*
X53588041Y-64326900D01*
X53535865Y-64372657D01*
X53477517Y-64399865D01*
X53404527Y-64450973D01*
X53404526Y-64450973D01*
X54130000Y-65176446D01*
X54130001Y-65176446D01*
X54855472Y-64450974D01*
X54855471Y-64450972D01*
X54782485Y-64399867D01*
X54724133Y-64372657D01*
X54671958Y-64326899D01*
X54652539Y-64260274D01*
X54671959Y-64193649D01*
X54724134Y-64147893D01*
X54782734Y-64120568D01*
X54969139Y-63990047D01*
X55130047Y-63829139D01*
X55260568Y-63642734D01*
X55356739Y-63436496D01*
X55415635Y-63216692D01*
X55435468Y-62990000D01*
X55415635Y-62763308D01*
X55356739Y-62543504D01*
X55260568Y-62337266D01*
X55130047Y-62150861D01*
X55130046Y-62150859D01*
X54969140Y-61989953D01*
X54782733Y-61859431D01*
X54724725Y-61832382D01*
X54672549Y-61786625D01*
X54653129Y-61720000D01*
X54672549Y-61653375D01*
X54724725Y-61607618D01*
X54782734Y-61580568D01*
X54969139Y-61450047D01*
X55130047Y-61289139D01*
X55260568Y-61102734D01*
X55356739Y-60896496D01*
X55415635Y-60676692D01*
X55435468Y-60450000D01*
X55415635Y-60223308D01*
X55356739Y-60003504D01*
X55260568Y-59797266D01*
X55130047Y-59610861D01*
X55130046Y-59610859D01*
X54969140Y-59449953D01*
X54944537Y-59432726D01*
X54905399Y-59387884D01*
X54891666Y-59329970D01*
X54906500Y-59272328D01*
X54946485Y-59228239D01*
X55002406Y-59207861D01*
X55037483Y-59204091D01*
X55172331Y-59153796D01*
X55287546Y-59067546D01*
X55373796Y-58952331D01*
X55424091Y-58817483D01*
X55430500Y-58757873D01*
X55430499Y-57062128D01*
X55424091Y-57002517D01*
X55373796Y-56867669D01*
X55287546Y-56752454D01*
X55172331Y-56666204D01*
X55037483Y-56615909D01*
X54977873Y-56609500D01*
X54977869Y-56609500D01*
X53282130Y-56609500D01*
X53222515Y-56615909D01*
X53087669Y-56666204D01*
X52972454Y-56752454D01*
X52886204Y-56867668D01*
X52835909Y-57002516D01*
X52829500Y-57062130D01*
X52829500Y-58757869D01*
X52835909Y-58817483D01*
X52886204Y-58952331D01*
X52972454Y-59067546D01*
X53087669Y-59153796D01*
X53222517Y-59204091D01*
X53257594Y-59207862D01*
X53313513Y-59228239D01*
X53353497Y-59272327D01*
X53368332Y-59329968D01*
X53354600Y-59387881D01*
X53315464Y-59432724D01*
X53290860Y-59449952D01*
X53129953Y-59610859D01*
X52999432Y-59797264D01*
X52903261Y-60003502D01*
X52844364Y-60223310D01*
X52824531Y-60449999D01*
X52844364Y-60676689D01*
X52903261Y-60896497D01*
X52999432Y-61102735D01*
X53129953Y-61289140D01*
X53290859Y-61450046D01*
X53477263Y-61580566D01*
X53477266Y-61580568D01*
X53535275Y-61607618D01*
X53587450Y-61653375D01*
X53606869Y-61720000D01*
X53587450Y-61786625D01*
X53535275Y-61832382D01*
X53477263Y-61859433D01*
X53290859Y-61989953D01*
X53129953Y-62150859D01*
X52999432Y-62337264D01*
X52903261Y-62543502D01*
X52844364Y-62763310D01*
X52824531Y-62989999D01*
X52500500Y-62989999D01*
X52500500Y-54100000D01*
X53294591Y-54100000D01*
X53314202Y-54386690D01*
X53372665Y-54668031D01*
X53468894Y-54938793D01*
X53601100Y-55193939D01*
X53766806Y-55428692D01*
X53766809Y-55428695D01*
X53766811Y-55428698D01*
X53962947Y-55638708D01*
X53962950Y-55638711D01*
X54096690Y-55747516D01*
X54185853Y-55820055D01*
X54431375Y-55969361D01*
X54694942Y-56083844D01*
X54971642Y-56161371D01*
X55256322Y-56200500D01*
X55543678Y-56200500D01*
X55828358Y-56161371D01*
X56105058Y-56083844D01*
X56368625Y-55969361D01*
X56614147Y-55820055D01*
X56837053Y-55638708D01*
X57033189Y-55428698D01*
X57198901Y-55193936D01*
X57331104Y-54938797D01*
X57427334Y-54668032D01*
X57485798Y-54386686D01*
X57505408Y-54100000D01*
X71074591Y-54100000D01*
X71094202Y-54386690D01*
X71152665Y-54668031D01*
X71248894Y-54938793D01*
X71381100Y-55193939D01*
X71546806Y-55428692D01*
X71546809Y-55428695D01*
X71546811Y-55428698D01*
X71742947Y-55638708D01*
X71742950Y-55638711D01*
X71876690Y-55747516D01*
X71965853Y-55820055D01*
X72211375Y-55969361D01*
X72474942Y-56083844D01*
X72751642Y-56161371D01*
X73036322Y-56200500D01*
X73323678Y-56200500D01*
X73608358Y-56161371D01*
X73885058Y-56083844D01*
X74148625Y-55969361D01*
X74394147Y-55820055D01*
X74617053Y-55638708D01*
X74813189Y-55428698D01*
X74978901Y-55193936D01*
X75111104Y-54938797D01*
X75207334Y-54668032D01*
X75265798Y-54386686D01*
X75285408Y-54100000D01*
X75265798Y-53813314D01*
X75207334Y-53531968D01*
X75111104Y-53261203D01*
X74978901Y-53006064D01*
X74978899Y-53006060D01*
X74813193Y-52771307D01*
X74813191Y-52771304D01*
X74813189Y-52771302D01*
X74617053Y-52561292D01*
X74617051Y-52561291D01*
X74617049Y-52561288D01*
X74394148Y-52379946D01*
X74394147Y-52379945D01*
X74148625Y-52230639D01*
X74148626Y-52230639D01*
X74148622Y-52230637D01*
X73885060Y-52116157D01*
X73885058Y-52116156D01*
X73682001Y-52059262D01*
X73608355Y-52038628D01*
X73323678Y-51999500D01*
X73036322Y-51999500D01*
X72751644Y-52038628D01*
X72548585Y-52095522D01*
X72474942Y-52116156D01*
X72474940Y-52116156D01*
X72474939Y-52116157D01*
X72211377Y-52230637D01*
X71965851Y-52379946D01*
X71742950Y-52561288D01*
X71546806Y-52771307D01*
X71381100Y-53006060D01*
X71248894Y-53261206D01*
X71152665Y-53531968D01*
X71094202Y-53813309D01*
X71074591Y-54100000D01*
X57505408Y-54100000D01*
X57485798Y-53813314D01*
X57427334Y-53531968D01*
X57331104Y-53261203D01*
X57198901Y-53006064D01*
X57198899Y-53006060D01*
X57033193Y-52771307D01*
X57033191Y-52771304D01*
X57033189Y-52771302D01*
X56837053Y-52561292D01*
X56837051Y-52561291D01*
X56837049Y-52561288D01*
X56614148Y-52379946D01*
X56614147Y-52379945D01*
X56368625Y-52230639D01*
X56368626Y-52230639D01*
X56368622Y-52230637D01*
X56105060Y-52116157D01*
X56105058Y-52116156D01*
X55902001Y-52059262D01*
X55828355Y-52038628D01*
X55543678Y-51999500D01*
X55256322Y-51999500D01*
X54971644Y-52038628D01*
X54768585Y-52095522D01*
X54694942Y-52116156D01*
X54694940Y-52116156D01*
X54694939Y-52116157D01*
X54431377Y-52230637D01*
X54185851Y-52379946D01*
X53962950Y-52561288D01*
X53766806Y-52771307D01*
X53601100Y-53006060D01*
X53468894Y-53261206D01*
X53372665Y-53531968D01*
X53314202Y-53813309D01*
X53294591Y-54100000D01*
X52500500Y-54100000D01*
X52500500Y-49077420D01*
X54799500Y-49077420D01*
X54814472Y-49234220D01*
X54873683Y-49435873D01*
X54969990Y-49622684D01*
X55099906Y-49787884D01*
X55258745Y-49925520D01*
X55357259Y-49982397D01*
X55440756Y-50030604D01*
X55525150Y-50059813D01*
X55639366Y-50099344D01*
X55674298Y-50104366D01*
X55847398Y-50129254D01*
X56057330Y-50119254D01*
X56261576Y-50069704D01*
X56347195Y-50030603D01*
X56452752Y-49982397D01*
X56532624Y-49925520D01*
X56623952Y-49860486D01*
X56721749Y-49757918D01*
X56768697Y-49727106D01*
X56824422Y-49720163D01*
X56877495Y-49738512D01*
X56917032Y-49778391D01*
X56957288Y-49843657D01*
X57081342Y-49967711D01*
X57105152Y-49982397D01*
X57230666Y-50059814D01*
X57342016Y-50096712D01*
X57397202Y-50114999D01*
X57407702Y-50116071D01*
X57499991Y-50125500D01*
X58300008Y-50125499D01*
X58402797Y-50114999D01*
X58569334Y-50059814D01*
X58718656Y-49967712D01*
X58842712Y-49843656D01*
X58934814Y-49694334D01*
X58989999Y-49527797D01*
X59000500Y-49425009D01*
X59000499Y-48074992D01*
X58989999Y-47972203D01*
X58934814Y-47805666D01*
X58842712Y-47656344D01*
X58842711Y-47656342D01*
X58718657Y-47532288D01*
X58569334Y-47440186D01*
X58402797Y-47385000D01*
X58300009Y-47374500D01*
X57499991Y-47374500D01*
X57397203Y-47385000D01*
X57230665Y-47440186D01*
X57081342Y-47532288D01*
X56957289Y-47656341D01*
X56918185Y-47719740D01*
X56876131Y-47761159D01*
X56819692Y-47778443D01*
X56761657Y-47767674D01*
X56715175Y-47731294D01*
X56700092Y-47712114D01*
X56541254Y-47574479D01*
X56359245Y-47469396D01*
X56160633Y-47400655D01*
X55952603Y-47370746D01*
X55952602Y-47370746D01*
X55873794Y-47374500D01*
X55742669Y-47380746D01*
X55538419Y-47430297D01*
X55347247Y-47517602D01*
X55176050Y-47639512D01*
X55031013Y-47791623D01*
X54917387Y-47968425D01*
X54839274Y-48163545D01*
X54799500Y-48369914D01*
X54799500Y-49077420D01*
X52500500Y-49077420D01*
X52500500Y-42324500D01*
X52517113Y-42262500D01*
X52562500Y-42217113D01*
X52624500Y-42200500D01*
X75875500Y-42200500D01*
X75937500Y-42217113D01*
G37*
%TD.AperFunction*%
%TD*%
M02*
