%TF.GenerationSoftware,KiCad,Pcbnew,7.0.1*%
%TF.CreationDate,2023-03-30T16:52:30-04:00*%
%TF.ProjectId,system-board,73797374-656d-42d6-926f-6172642e6b69,rev?*%
%TF.SameCoordinates,Original*%
%TF.FileFunction,Copper,L1,Top*%
%TF.FilePolarity,Positive*%
%FSLAX46Y46*%
G04 Gerber Fmt 4.6, Leading zero omitted, Abs format (unit mm)*
G04 Created by KiCad (PCBNEW 7.0.1) date 2023-03-30 16:52:30*
%MOMM*%
%LPD*%
G01*
G04 APERTURE LIST*
G04 Aperture macros list*
%AMRoundRect*
0 Rectangle with rounded corners*
0 $1 Rounding radius*
0 $2 $3 $4 $5 $6 $7 $8 $9 X,Y pos of 4 corners*
0 Add a 4 corners polygon primitive as box body*
4,1,4,$2,$3,$4,$5,$6,$7,$8,$9,$2,$3,0*
0 Add four circle primitives for the rounded corners*
1,1,$1+$1,$2,$3*
1,1,$1+$1,$4,$5*
1,1,$1+$1,$6,$7*
1,1,$1+$1,$8,$9*
0 Add four rect primitives between the rounded corners*
20,1,$1+$1,$2,$3,$4,$5,0*
20,1,$1+$1,$4,$5,$6,$7,0*
20,1,$1+$1,$6,$7,$8,$9,0*
20,1,$1+$1,$8,$9,$2,$3,0*%
G04 Aperture macros list end*
%TA.AperFunction,SMDPad,CuDef*%
%ADD10R,0.700000X1.600000*%
%TD*%
%TA.AperFunction,SMDPad,CuDef*%
%ADD11R,1.600000X1.500000*%
%TD*%
%TA.AperFunction,SMDPad,CuDef*%
%ADD12R,1.200000X1.500000*%
%TD*%
%TA.AperFunction,SMDPad,CuDef*%
%ADD13R,1.200000X2.200000*%
%TD*%
%TA.AperFunction,SMDPad,CuDef*%
%ADD14RoundRect,0.150000X0.625000X-0.150000X0.625000X0.150000X-0.625000X0.150000X-0.625000X-0.150000X0*%
%TD*%
%TA.AperFunction,SMDPad,CuDef*%
%ADD15RoundRect,0.250000X0.650000X-0.350000X0.650000X0.350000X-0.650000X0.350000X-0.650000X-0.350000X0*%
%TD*%
%TA.AperFunction,SMDPad,CuDef*%
%ADD16RoundRect,0.218750X0.256250X-0.218750X0.256250X0.218750X-0.256250X0.218750X-0.256250X-0.218750X0*%
%TD*%
%TA.AperFunction,SMDPad,CuDef*%
%ADD17RoundRect,0.140000X-0.170000X0.140000X-0.170000X-0.140000X0.170000X-0.140000X0.170000X0.140000X0*%
%TD*%
%TA.AperFunction,SMDPad,CuDef*%
%ADD18RoundRect,0.250000X-0.625000X0.312500X-0.625000X-0.312500X0.625000X-0.312500X0.625000X0.312500X0*%
%TD*%
%TA.AperFunction,ComponentPad*%
%ADD19RoundRect,0.250000X-0.625000X0.350000X-0.625000X-0.350000X0.625000X-0.350000X0.625000X0.350000X0*%
%TD*%
%TA.AperFunction,ComponentPad*%
%ADD20O,1.750000X1.200000*%
%TD*%
%TA.AperFunction,WasherPad*%
%ADD21C,3.200000*%
%TD*%
%TA.AperFunction,ComponentPad*%
%ADD22R,1.600000X1.600000*%
%TD*%
%TA.AperFunction,ComponentPad*%
%ADD23C,1.600000*%
%TD*%
%TA.AperFunction,SMDPad,CuDef*%
%ADD24RoundRect,0.250000X0.250000X1.500000X-0.250000X1.500000X-0.250000X-1.500000X0.250000X-1.500000X0*%
%TD*%
%TA.AperFunction,SMDPad,CuDef*%
%ADD25RoundRect,0.250001X0.499999X1.449999X-0.499999X1.449999X-0.499999X-1.449999X0.499999X-1.449999X0*%
%TD*%
%TA.AperFunction,ComponentPad*%
%ADD26RoundRect,0.250000X0.350000X0.625000X-0.350000X0.625000X-0.350000X-0.625000X0.350000X-0.625000X0*%
%TD*%
%TA.AperFunction,ComponentPad*%
%ADD27O,1.200000X1.750000*%
%TD*%
%TA.AperFunction,SMDPad,CuDef*%
%ADD28RoundRect,0.250000X-0.650000X0.325000X-0.650000X-0.325000X0.650000X-0.325000X0.650000X0.325000X0*%
%TD*%
%TA.AperFunction,SMDPad,CuDef*%
%ADD29R,0.242474X0.857120*%
%TD*%
%TA.AperFunction,SMDPad,CuDef*%
%ADD30RoundRect,0.121237X0.000000X0.307323X0.000000X-0.307323X0.000000X-0.307323X0.000000X0.307323X0*%
%TD*%
%TA.AperFunction,SMDPad,CuDef*%
%ADD31RoundRect,0.121237X-0.307323X0.000000X-0.307323X0.000000X0.307323X0.000000X0.307323X0.000000X0*%
%TD*%
%TA.AperFunction,SMDPad,CuDef*%
%ADD32R,1.250000X1.250000*%
%TD*%
%TA.AperFunction,ComponentPad*%
%ADD33R,1.905000X2.000000*%
%TD*%
%TA.AperFunction,ComponentPad*%
%ADD34O,1.905000X2.000000*%
%TD*%
%TA.AperFunction,SMDPad,CuDef*%
%ADD35RoundRect,0.225000X0.250000X-0.225000X0.250000X0.225000X-0.250000X0.225000X-0.250000X-0.225000X0*%
%TD*%
%TA.AperFunction,ViaPad*%
%ADD36C,0.800000*%
%TD*%
%TA.AperFunction,Conductor*%
%ADD37C,0.500000*%
%TD*%
%TA.AperFunction,Conductor*%
%ADD38C,0.300000*%
%TD*%
G04 APERTURE END LIST*
D10*
%TO.P,J1,1,DAT2*%
%TO.N,unconnected-(J1-DAT2-Pad1)*%
X63300000Y-105350000D03*
%TO.P,J1,2,CD/DAT3*%
%TO.N,unconnected-(J1-CD{slash}DAT3-Pad2)*%
X62200000Y-105350000D03*
%TO.P,J1,3,CMD*%
%TO.N,Net-(A1-MOSI)*%
X61100000Y-105350000D03*
%TO.P,J1,4,VDD*%
%TO.N,VCC*%
X60000000Y-105350000D03*
%TO.P,J1,5,CLX*%
%TO.N,Net-(A1-SCK)*%
X58900000Y-105350000D03*
%TO.P,J1,6,VSS*%
%TO.N,GND*%
X57800000Y-105350000D03*
%TO.P,J1,7,DAT0*%
%TO.N,Net-(A1-MISO)*%
X56700000Y-105350000D03*
%TO.P,J1,8,DAT1*%
%TO.N,unconnected-(J1-DAT1-Pad8)*%
X55600000Y-105350000D03*
%TO.P,J1,CD1,CD1*%
%TO.N,unconnected-(J1-PadCD1)*%
X54500000Y-105350000D03*
D11*
%TO.P,J1,MP1,MP1*%
%TO.N,unconnected-(J1-PadMP1)*%
X67900000Y-106350000D03*
D12*
%TO.P,J1,MP2,MP2*%
%TO.N,unconnected-(J1-PadMP2)*%
X53300000Y-106350000D03*
D13*
%TO.P,J1,MP3,MP3*%
%TO.N,unconnected-(J1-PadMP3)*%
X53300000Y-115950000D03*
%TO.P,J1,MP4,MP4*%
%TO.N,unconnected-(J1-PadMP4)*%
X68800000Y-115950000D03*
%TD*%
D14*
%TO.P,J5,1,Pin_1*%
%TO.N,GND*%
X69367893Y-62150000D03*
%TO.P,J5,2,Pin_2*%
%TO.N,VCC*%
X69367893Y-61150000D03*
%TO.P,J5,3,Pin_3*%
%TO.N,Net-(A1-SDA)*%
X69367893Y-60150000D03*
%TO.P,J5,4,Pin_4*%
%TO.N,Net-(A1-SCL)*%
X69367893Y-59150000D03*
D15*
%TO.P,J5,MP*%
%TO.N,N/C*%
X73242893Y-63450000D03*
X73242893Y-57850000D03*
%TD*%
D16*
%TO.P,FB2,1*%
%TO.N,/SPKR_P*%
X69300000Y-93125550D03*
%TO.P,FB2,2*%
%TO.N,/SOUND_OUT_P*%
X69300000Y-91550550D03*
%TD*%
D17*
%TO.P,C3,1*%
%TO.N,GND*%
X67900000Y-92250550D03*
%TO.P,C3,2*%
%TO.N,/SPKR_P*%
X67900000Y-93210550D03*
%TD*%
D18*
%TO.P,R1,1*%
%TO.N,Net-(U1-~{SD_MODE})*%
X62300000Y-85487500D03*
%TO.P,R1,2*%
%TO.N,VCC*%
X62300000Y-88412500D03*
%TD*%
D19*
%TO.P,J2,1,Pin_1*%
%TO.N,/SPKR_P*%
X69600000Y-96850000D03*
D20*
%TO.P,J2,2,Pin_2*%
%TO.N,/SPKR_N*%
X69600000Y-98850000D03*
%TD*%
D16*
%TO.P,FB1,1*%
%TO.N,/SPKR_N*%
X70900000Y-93125550D03*
%TO.P,FB1,2*%
%TO.N,/SOUND_OUT_N*%
X70900000Y-91550550D03*
%TD*%
D21*
%TO.P,A1,*%
%TO.N,*%
X55400000Y-54100000D03*
X73180000Y-54100000D03*
D22*
%TO.P,A1,1,~{RESET}*%
%TO.N,unconnected-(A1-~{RESET}-Pad1)*%
X54130000Y-57910000D03*
D23*
%TO.P,A1,2,3V3*%
%TO.N,VCC*%
X54130000Y-60450000D03*
%TO.P,A1,3,AREF*%
%TO.N,unconnected-(A1-AREF-Pad3)*%
X54130000Y-62990000D03*
%TO.P,A1,4,GND*%
%TO.N,GND*%
X54130000Y-65530000D03*
%TO.P,A1,5,A0*%
%TO.N,Net-(A1-A0)*%
X54130000Y-68070000D03*
%TO.P,A1,6,A1*%
%TO.N,Net-(A1-A1)*%
X54130000Y-70610000D03*
%TO.P,A1,7,A2*%
%TO.N,Net-(A1-A2)*%
X54130000Y-73150000D03*
%TO.P,A1,8,A3*%
%TO.N,unconnected-(A1-A3-Pad8)*%
X54130000Y-75690000D03*
%TO.P,A1,9,A4*%
%TO.N,unconnected-(A1-A4-Pad9)*%
X54130000Y-78230000D03*
%TO.P,A1,10,A5*%
%TO.N,unconnected-(A1-A5-Pad10)*%
X54130000Y-80770000D03*
%TO.P,A1,11,SCK*%
%TO.N,Net-(A1-SCK)*%
X54130000Y-83310000D03*
%TO.P,A1,12,MOSI*%
%TO.N,Net-(A1-MOSI)*%
X54130000Y-85850000D03*
%TO.P,A1,13,MISO*%
%TO.N,Net-(A1-MISO)*%
X54130000Y-88390000D03*
%TO.P,A1,14,RX*%
%TO.N,unconnected-(A1-RX-Pad14)*%
X54130000Y-90930000D03*
%TO.P,A1,15,TX*%
%TO.N,unconnected-(A1-TX-Pad15)*%
X54130000Y-93470000D03*
%TO.P,A1,16,SPARE*%
%TO.N,unconnected-(A1-SPARE-Pad16)*%
X54130000Y-96010000D03*
%TO.P,A1,17,SDA*%
%TO.N,Net-(A1-SDA)*%
X74450000Y-96010000D03*
%TO.P,A1,18,SCL*%
%TO.N,Net-(A1-SCL)*%
X74450000Y-93470000D03*
%TO.P,A1,19,D0*%
%TO.N,unconnected-(A1-D0-Pad19)*%
X74450000Y-90930000D03*
%TO.P,A1,20,D1*%
%TO.N,unconnected-(A1-D1-Pad20)*%
X74450000Y-88390000D03*
%TO.P,A1,21,D2*%
%TO.N,unconnected-(A1-D2-Pad21)*%
X74450000Y-85850000D03*
%TO.P,A1,22,D3*%
%TO.N,unconnected-(A1-D3-Pad22)*%
X74450000Y-83310000D03*
%TO.P,A1,23,D4*%
%TO.N,/LRC*%
X74450000Y-80770000D03*
%TO.P,A1,24,D5*%
%TO.N,/BCLK*%
X74450000Y-78230000D03*
%TO.P,A1,25,D6*%
%TO.N,/DIN*%
X74450000Y-75690000D03*
%TO.P,A1,26,USB*%
%TO.N,unconnected-(A1-USB-Pad26)*%
X74450000Y-73150000D03*
%TO.P,A1,27,EN*%
%TO.N,unconnected-(A1-EN-Pad27)*%
X74450000Y-70610000D03*
%TO.P,A1,28,VBAT*%
%TO.N,unconnected-(A1-VBAT-Pad28)*%
X74450000Y-68070000D03*
%TD*%
D24*
%TO.P,J4,1,Pin_1*%
%TO.N,VCC*%
X72550000Y-49950000D03*
%TO.P,J4,2,Pin_2*%
%TO.N,GND*%
X70550000Y-49950000D03*
%TO.P,J4,3,Pin_3*%
%TO.N,Net-(A1-A2)*%
X68550000Y-49950000D03*
%TO.P,J4,4,Pin_4*%
%TO.N,Net-(A1-A1)*%
X66550000Y-49950000D03*
D25*
%TO.P,J4,MP*%
%TO.N,N/C*%
X74900000Y-44200000D03*
X64200000Y-44200000D03*
%TD*%
D17*
%TO.P,C4,1*%
%TO.N,GND*%
X72300000Y-92270550D03*
%TO.P,C4,2*%
%TO.N,/SPKR_N*%
X72300000Y-93230550D03*
%TD*%
D26*
%TO.P,J3,1,Pin_1*%
%TO.N,VCC*%
X57900000Y-48750000D03*
D27*
%TO.P,J3,2,Pin_2*%
%TO.N,Net-(J3-Pin_2)*%
X55900000Y-48750000D03*
%TD*%
D28*
%TO.P,C1,1*%
%TO.N,GND*%
X67400000Y-86700000D03*
%TO.P,C1,2*%
%TO.N,VCC*%
X67400000Y-89650000D03*
%TD*%
D29*
%TO.P,U1,1,DIN*%
%TO.N,/DIN*%
X71300000Y-87300000D03*
D30*
%TO.P,U1,2,GAIN_SLOT*%
%TO.N,unconnected-(U1-GAIN_SLOT-Pad2)*%
X70800000Y-87300000D03*
%TO.P,U1,3,GND*%
%TO.N,GND*%
X70300000Y-87300000D03*
%TO.P,U1,4,~{SD_MODE}*%
%TO.N,Net-(U1-~{SD_MODE})*%
X69800000Y-87300000D03*
D31*
%TO.P,U1,5,NC*%
%TO.N,unconnected-(U1-NC-Pad5)*%
X69199450Y-87900550D03*
%TO.P,U1,6,NC*%
%TO.N,unconnected-(U1-NC-Pad6)*%
X69199450Y-88400550D03*
%TO.P,U1,7,VDD*%
%TO.N,VCC*%
X69199450Y-88900550D03*
%TO.P,U1,8,VDD*%
X69199450Y-89400550D03*
D30*
%TO.P,U1,9,OUTP*%
%TO.N,/SOUND_OUT_P*%
X69800000Y-90001100D03*
%TO.P,U1,10,OUTN*%
%TO.N,/SOUND_OUT_N*%
X70300000Y-90001100D03*
%TO.P,U1,11,GND*%
%TO.N,GND*%
X70800000Y-90001100D03*
%TO.P,U1,12,NC*%
%TO.N,unconnected-(U1-NC-Pad12)*%
X71300000Y-90001100D03*
D31*
%TO.P,U1,13,NC*%
%TO.N,unconnected-(U1-NC-Pad13)*%
X71900550Y-89400550D03*
%TO.P,U1,14,LRCLK*%
%TO.N,/LRC*%
X71900550Y-88900550D03*
%TO.P,U1,15,GND*%
%TO.N,GND*%
X71900550Y-88400550D03*
%TO.P,U1,16,BCLK*%
%TO.N,/BCLK*%
X71900550Y-87900550D03*
D32*
%TO.P,U1,17,EP*%
%TO.N,GND*%
X70550000Y-88650550D03*
%TD*%
D33*
%TO.P,Q1,1,G*%
%TO.N,Net-(A1-A0)*%
X63340000Y-65100000D03*
D34*
%TO.P,Q1,2,D*%
%TO.N,Net-(J3-Pin_2)*%
X60800000Y-65100000D03*
%TO.P,Q1,3,S*%
%TO.N,GND*%
X58260000Y-65100000D03*
%TD*%
D35*
%TO.P,C2,1*%
%TO.N,VCC*%
X65400000Y-88150000D03*
%TO.P,C2,2*%
%TO.N,GND*%
X65400000Y-86600000D03*
%TD*%
D36*
%TO.N,GND*%
X70500000Y-88600000D03*
X70500000Y-52400000D03*
X64000000Y-86600000D03*
X67442893Y-62350000D03*
X58300000Y-62800000D03*
X55900000Y-65530000D03*
X69001100Y-86100000D03*
X72400000Y-91250550D03*
X57779977Y-103929977D03*
X67800000Y-91150550D03*
%TO.N,Net-(A1-SDA)*%
X72664727Y-83615227D03*
X70150500Y-83615227D03*
%TD*%
D37*
%TO.N,VCC*%
X65400000Y-88150000D02*
X65900000Y-88150000D01*
X69367893Y-61150000D02*
X68744365Y-61150000D01*
D38*
X69199450Y-89400550D02*
X67649450Y-89400550D01*
D37*
X54607767Y-74400000D02*
X53612233Y-74400000D01*
X61987500Y-88412500D02*
X61200000Y-89200000D01*
X54130000Y-60450000D02*
X52750000Y-59070000D01*
X72550000Y-48450000D02*
X72550000Y-49950000D01*
X59350000Y-47300000D02*
X71400000Y-47300000D01*
X52750000Y-48950000D02*
X54800000Y-46900000D01*
X52750000Y-59070000D02*
X52750000Y-48950000D01*
X65137500Y-88412500D02*
X65400000Y-88150000D01*
X52880000Y-61700000D02*
X54130000Y-60450000D01*
X53612233Y-74400000D02*
X52880000Y-73667767D01*
X56551270Y-87351270D02*
X56551270Y-76343503D01*
X65900000Y-88150000D02*
X67400000Y-89650000D01*
X56700000Y-46900000D02*
X57900000Y-48100000D01*
X62300000Y-88412500D02*
X65137500Y-88412500D01*
X63313110Y-104100000D02*
X64100000Y-104100000D01*
X68142893Y-60548528D02*
X68142893Y-56237969D01*
X71400000Y-47300000D02*
X72550000Y-48450000D01*
X64100000Y-106600000D02*
X60100000Y-106600000D01*
X57900000Y-48750000D02*
X59350000Y-47300000D01*
X68744365Y-61150000D02*
X68142893Y-60548528D01*
D38*
X67649450Y-89400550D02*
X67400000Y-89650000D01*
D37*
X64100000Y-104100000D02*
X64100000Y-106600000D01*
X62300000Y-88412500D02*
X61987500Y-88412500D01*
X60100000Y-106600000D02*
X60000000Y-106500000D01*
X60000000Y-106500000D02*
X60000000Y-105350000D01*
X59800000Y-100586890D02*
X63313110Y-104100000D01*
X56551270Y-76343503D02*
X54607767Y-74400000D01*
X52880000Y-73667767D02*
X52880000Y-61700000D01*
D38*
X69199450Y-88900550D02*
X68149450Y-88900550D01*
D37*
X61200000Y-89200000D02*
X58400000Y-89200000D01*
X54800000Y-46900000D02*
X56700000Y-46900000D01*
X58400000Y-89200000D02*
X56551270Y-87351270D01*
X68142893Y-56237969D02*
X72550000Y-51830862D01*
X57900000Y-48100000D02*
X57900000Y-48750000D01*
D38*
X68149450Y-88900550D02*
X67400000Y-89650000D01*
D37*
X72550000Y-51830862D02*
X72550000Y-49950000D01*
X59800000Y-90600000D02*
X59800000Y-100586890D01*
X58400000Y-89200000D02*
X59800000Y-90600000D01*
%TO.N,GND*%
X67642893Y-62150000D02*
X67442893Y-62350000D01*
X57800000Y-105350000D02*
X57800000Y-103950000D01*
X67400000Y-86700000D02*
X68300000Y-86700000D01*
X55900000Y-65530000D02*
X54130000Y-65530000D01*
D38*
X70800000Y-88400550D02*
X70550000Y-88650550D01*
D37*
X65400000Y-86600000D02*
X67300000Y-86600000D01*
X69367893Y-62150000D02*
X67642893Y-62150000D01*
X68300000Y-86700000D02*
X68900000Y-86100000D01*
X70550000Y-49950000D02*
X70550000Y-52350000D01*
D38*
X71900550Y-88400550D02*
X70800000Y-88400550D01*
D37*
X58260000Y-62840000D02*
X58300000Y-62800000D01*
D38*
X70300000Y-88400000D02*
X70500000Y-88600000D01*
X67900000Y-91250550D02*
X67800000Y-91150550D01*
X67900000Y-92250550D02*
X67900000Y-91250550D01*
X72300000Y-92270550D02*
X72300000Y-91350550D01*
D37*
X65400000Y-86600000D02*
X64000000Y-86600000D01*
X57800000Y-103950000D02*
X57779977Y-103929977D01*
X67300000Y-86600000D02*
X67400000Y-86700000D01*
X70550000Y-52350000D02*
X70500000Y-52400000D01*
D38*
X70300000Y-87300000D02*
X70300000Y-88400000D01*
X72300000Y-91350550D02*
X72400000Y-91250550D01*
D37*
X70550000Y-88650000D02*
X70500000Y-88600000D01*
X70550000Y-88650550D02*
X70550000Y-88650000D01*
D38*
X70800000Y-88900550D02*
X70550000Y-88650550D01*
D37*
X58260000Y-65100000D02*
X58260000Y-62840000D01*
D38*
X70800000Y-90001100D02*
X70800000Y-88900550D01*
%TO.N,Net-(A1-A1)*%
X64700000Y-66392500D02*
X64700000Y-51800000D01*
X64700000Y-51800000D02*
X66550000Y-49950000D01*
X54130000Y-70610000D02*
X60482500Y-70610000D01*
X60482500Y-70610000D02*
X64700000Y-66392500D01*
%TO.N,Net-(A1-A2)*%
X58649606Y-73150000D02*
X65200000Y-66599606D01*
X65200000Y-66599606D02*
X65200000Y-53898528D01*
X65200000Y-53898528D02*
X68550000Y-50548528D01*
X54130000Y-73150000D02*
X58649606Y-73150000D01*
X68550000Y-50548528D02*
X68550000Y-49950000D01*
%TO.N,Net-(A1-SDA)*%
X70492893Y-60792893D02*
X69850000Y-60150000D01*
X74450000Y-96010000D02*
X74850000Y-96410000D01*
X74450000Y-96010000D02*
X73300000Y-94860000D01*
X73300000Y-84250500D02*
X72664727Y-83615227D01*
X70150000Y-69550000D02*
X70492893Y-69207107D01*
X73300000Y-94860000D02*
X73300000Y-84250500D01*
X69850000Y-60150000D02*
X69367893Y-60150000D01*
X70492893Y-69207107D02*
X70492893Y-60792893D01*
X70150500Y-83615227D02*
X70150000Y-83614727D01*
X70150000Y-83614727D02*
X70150000Y-69550000D01*
%TO.N,Net-(A1-SCL)*%
X70791421Y-59150000D02*
X69367893Y-59150000D01*
X74450000Y-93470000D02*
X75600000Y-92320000D01*
X75600000Y-63958579D02*
X70791421Y-59150000D01*
X69850000Y-59150000D02*
X69367893Y-59150000D01*
X75600000Y-92320000D02*
X75600000Y-63958579D01*
%TO.N,Net-(A1-A0)*%
X54130000Y-68070000D02*
X60370000Y-68070000D01*
X60370000Y-68070000D02*
X63340000Y-65100000D01*
%TO.N,/DIN*%
X71300000Y-87300000D02*
X71400000Y-87300000D01*
X71700000Y-85125374D02*
X70900000Y-84325373D01*
X71700000Y-87000000D02*
X71700000Y-85125374D01*
X71400000Y-87300000D02*
X71700000Y-87000000D01*
X70900000Y-84325373D02*
X70900000Y-79240000D01*
X70900000Y-79240000D02*
X74450000Y-75690000D01*
%TO.N,/BCLK*%
X72250000Y-87551100D02*
X71900550Y-87900550D01*
X74450000Y-78230000D02*
X71400000Y-81280000D01*
X71400000Y-81280000D02*
X71400000Y-84118267D01*
X72146960Y-84865227D02*
X72158121Y-84865227D01*
X72158121Y-84865227D02*
X72250000Y-84957106D01*
X71400000Y-84118267D02*
X72146960Y-84865227D01*
X72250000Y-84957106D02*
X72250000Y-87551100D01*
%TO.N,/LRC*%
X71914727Y-83305273D02*
X71914727Y-83925888D01*
X72365227Y-84365227D02*
X72750000Y-84750000D01*
X74450000Y-80770000D02*
X71914727Y-83305273D01*
X72374303Y-88900550D02*
X71900550Y-88900550D01*
X71914727Y-83925888D02*
X72354066Y-84365227D01*
X72750000Y-84750000D02*
X72750000Y-88524853D01*
X72750000Y-88524853D02*
X72374303Y-88900550D01*
X72354066Y-84365227D02*
X72365227Y-84365227D01*
D37*
%TO.N,Net-(J3-Pin_2)*%
X60800000Y-65100000D02*
X60800000Y-55200000D01*
X60800000Y-55200000D02*
X55900000Y-50300000D01*
X55900000Y-50300000D02*
X55900000Y-48750000D01*
D38*
%TO.N,Net-(A1-SCK)*%
X52980000Y-84460000D02*
X54130000Y-83310000D01*
X58700000Y-91333654D02*
X54366346Y-87000000D01*
X58700000Y-101042524D02*
X58900000Y-101242524D01*
X54366346Y-87000000D02*
X53653654Y-87000000D01*
X52980000Y-86326346D02*
X52980000Y-84460000D01*
X53653654Y-87000000D02*
X52980000Y-86326346D01*
X58700000Y-101042524D02*
X58700000Y-91333654D01*
X58900000Y-101242524D02*
X58900000Y-105350000D01*
%TO.N,Net-(A1-MOSI)*%
X59200000Y-100835418D02*
X61100000Y-102735418D01*
X59200000Y-90920000D02*
X54130000Y-85850000D01*
X61100000Y-102735418D02*
X61100000Y-105350000D01*
X59200000Y-100835418D02*
X59200000Y-90920000D01*
%TO.N,Net-(A1-MISO)*%
X58200000Y-91540760D02*
X58200000Y-102450000D01*
X58200000Y-102450000D02*
X56700000Y-103950000D01*
X56700000Y-103950000D02*
X56700000Y-105350000D01*
X54130000Y-88390000D02*
X55049240Y-88390000D01*
X55049240Y-88390000D02*
X58200000Y-91540760D01*
%TO.N,Net-(U1-~{SD_MODE})*%
X69800000Y-85838239D02*
X69311761Y-85350000D01*
X69800000Y-87300000D02*
X69800000Y-85838239D01*
X69311761Y-85350000D02*
X62437500Y-85350000D01*
X62437500Y-85350000D02*
X62300000Y-85487500D01*
%TO.N,/SPKR_P*%
X69300000Y-96550000D02*
X69300000Y-93125550D01*
X67900000Y-93210550D02*
X69215000Y-93210550D01*
X69600000Y-96850000D02*
X69300000Y-96550000D01*
X69215000Y-93210550D02*
X69300000Y-93125550D01*
X69300000Y-93125550D02*
X69575000Y-93125550D01*
%TO.N,/SPKR_N*%
X70900000Y-93125550D02*
X71195000Y-93125550D01*
X72195000Y-93125550D02*
X72300000Y-93230550D01*
X70900000Y-93125550D02*
X72195000Y-93125550D01*
X69600000Y-98850000D02*
X70900000Y-97550000D01*
X70900000Y-97550000D02*
X70900000Y-93125550D01*
%TO.N,/SOUND_OUT_N*%
X70299450Y-90950000D02*
X70900000Y-91550550D01*
X70300000Y-90949450D02*
X70299450Y-90950000D01*
X70300000Y-90001100D02*
X70300000Y-90949450D01*
%TO.N,/SOUND_OUT_P*%
X69799450Y-91051100D02*
X69300000Y-91550550D01*
X69799450Y-90001650D02*
X69799450Y-91051100D01*
X69800000Y-90001100D02*
X69799450Y-90001650D01*
%TD*%
M02*
