%TF.GenerationSoftware,KiCad,Pcbnew,7.0.1*%
%TF.CreationDate,2023-03-30T16:52:30-04:00*%
%TF.ProjectId,system-board,73797374-656d-42d6-926f-6172642e6b69,rev?*%
%TF.SameCoordinates,Original*%
%TF.FileFunction,Soldermask,Top*%
%TF.FilePolarity,Negative*%
%FSLAX46Y46*%
G04 Gerber Fmt 4.6, Leading zero omitted, Abs format (unit mm)*
G04 Created by KiCad (PCBNEW 7.0.1) date 2023-03-30 16:52:30*
%MOMM*%
%LPD*%
G01*
G04 APERTURE LIST*
G04 Aperture macros list*
%AMRoundRect*
0 Rectangle with rounded corners*
0 $1 Rounding radius*
0 $2 $3 $4 $5 $6 $7 $8 $9 X,Y pos of 4 corners*
0 Add a 4 corners polygon primitive as box body*
4,1,4,$2,$3,$4,$5,$6,$7,$8,$9,$2,$3,0*
0 Add four circle primitives for the rounded corners*
1,1,$1+$1,$2,$3*
1,1,$1+$1,$4,$5*
1,1,$1+$1,$6,$7*
1,1,$1+$1,$8,$9*
0 Add four rect primitives between the rounded corners*
20,1,$1+$1,$2,$3,$4,$5,0*
20,1,$1+$1,$4,$5,$6,$7,0*
20,1,$1+$1,$6,$7,$8,$9,0*
20,1,$1+$1,$8,$9,$2,$3,0*%
G04 Aperture macros list end*
%ADD10R,0.700000X1.600000*%
%ADD11C,1.000000*%
%ADD12R,1.600000X1.500000*%
%ADD13R,1.200000X1.500000*%
%ADD14R,1.200000X2.200000*%
%ADD15RoundRect,0.150000X0.625000X-0.150000X0.625000X0.150000X-0.625000X0.150000X-0.625000X-0.150000X0*%
%ADD16RoundRect,0.250000X0.650000X-0.350000X0.650000X0.350000X-0.650000X0.350000X-0.650000X-0.350000X0*%
%ADD17RoundRect,0.218750X0.256250X-0.218750X0.256250X0.218750X-0.256250X0.218750X-0.256250X-0.218750X0*%
%ADD18RoundRect,0.140000X-0.170000X0.140000X-0.170000X-0.140000X0.170000X-0.140000X0.170000X0.140000X0*%
%ADD19RoundRect,0.250000X-0.625000X0.312500X-0.625000X-0.312500X0.625000X-0.312500X0.625000X0.312500X0*%
%ADD20RoundRect,0.250000X-0.625000X0.350000X-0.625000X-0.350000X0.625000X-0.350000X0.625000X0.350000X0*%
%ADD21O,1.750000X1.200000*%
%ADD22C,3.200000*%
%ADD23C,2.540000*%
%ADD24R,1.600000X1.600000*%
%ADD25C,1.600000*%
%ADD26RoundRect,0.250000X0.250000X1.500000X-0.250000X1.500000X-0.250000X-1.500000X0.250000X-1.500000X0*%
%ADD27RoundRect,0.250001X0.499999X1.449999X-0.499999X1.449999X-0.499999X-1.449999X0.499999X-1.449999X0*%
%ADD28RoundRect,0.250000X0.350000X0.625000X-0.350000X0.625000X-0.350000X-0.625000X0.350000X-0.625000X0*%
%ADD29O,1.200000X1.750000*%
%ADD30RoundRect,0.250000X-0.650000X0.325000X-0.650000X-0.325000X0.650000X-0.325000X0.650000X0.325000X0*%
%ADD31R,0.242474X0.857120*%
%ADD32RoundRect,0.121237X0.000000X0.307323X0.000000X-0.307323X0.000000X-0.307323X0.000000X0.307323X0*%
%ADD33RoundRect,0.121237X-0.307323X0.000000X-0.307323X0.000000X0.307323X0.000000X0.307323X0.000000X0*%
%ADD34R,1.250000X1.250000*%
%ADD35O,3.500000X3.500000*%
%ADD36R,1.905000X2.000000*%
%ADD37O,1.905000X2.000000*%
%ADD38RoundRect,0.225000X0.250000X-0.225000X0.250000X0.225000X-0.250000X0.225000X-0.250000X-0.225000X0*%
G04 APERTURE END LIST*
D10*
%TO.C,J1*%
X63300000Y-105350000D03*
X62200000Y-105350000D03*
X61100000Y-105350000D03*
X60000000Y-105350000D03*
X58900000Y-105350000D03*
X57800000Y-105350000D03*
X56700000Y-105350000D03*
X55600000Y-105350000D03*
X54500000Y-105350000D03*
D11*
X64100000Y-116350000D03*
X56100000Y-116350000D03*
D12*
X67900000Y-106350000D03*
D13*
X53300000Y-106350000D03*
D14*
X53300000Y-115950000D03*
X68800000Y-115950000D03*
%TD*%
D15*
%TO.C,J5*%
X69367893Y-62150000D03*
X69367893Y-61150000D03*
X69367893Y-60150000D03*
X69367893Y-59150000D03*
D16*
X73242893Y-63450000D03*
X73242893Y-57850000D03*
%TD*%
D17*
%TO.C,FB2*%
X69300000Y-93125550D03*
X69300000Y-91550550D03*
%TD*%
D18*
%TO.C,C3*%
X67900000Y-92250550D03*
X67900000Y-93210550D03*
%TD*%
D19*
%TO.C,R1*%
X62300000Y-85487500D03*
X62300000Y-88412500D03*
%TD*%
D20*
%TO.C,J2*%
X69600000Y-96850000D03*
D21*
X69600000Y-98850000D03*
%TD*%
D17*
%TO.C,FB1*%
X70900000Y-93125550D03*
X70900000Y-91550550D03*
%TD*%
D22*
%TO.C,A1*%
X55400000Y-54100000D03*
D23*
X55400000Y-99820000D03*
D22*
X73180000Y-54100000D03*
D23*
X73180000Y-99820000D03*
D24*
X54130000Y-57910000D03*
D25*
X54130000Y-60450000D03*
X54130000Y-62990000D03*
X54130000Y-65530000D03*
X54130000Y-68070000D03*
X54130000Y-70610000D03*
X54130000Y-73150000D03*
X54130000Y-75690000D03*
X54130000Y-78230000D03*
X54130000Y-80770000D03*
X54130000Y-83310000D03*
X54130000Y-85850000D03*
X54130000Y-88390000D03*
X54130000Y-90930000D03*
X54130000Y-93470000D03*
X54130000Y-96010000D03*
X74450000Y-96010000D03*
X74450000Y-93470000D03*
X74450000Y-90930000D03*
X74450000Y-88390000D03*
X74450000Y-85850000D03*
X74450000Y-83310000D03*
X74450000Y-80770000D03*
X74450000Y-78230000D03*
X74450000Y-75690000D03*
X74450000Y-73150000D03*
X74450000Y-70610000D03*
X74450000Y-68070000D03*
%TD*%
D26*
%TO.C,J4*%
X72550000Y-49950000D03*
X70550000Y-49950000D03*
X68550000Y-49950000D03*
X66550000Y-49950000D03*
D27*
X74900000Y-44200000D03*
X64200000Y-44200000D03*
%TD*%
D18*
%TO.C,C4*%
X72300000Y-92270550D03*
X72300000Y-93230550D03*
%TD*%
D28*
%TO.C,J3*%
X57900000Y-48750000D03*
D29*
X55900000Y-48750000D03*
%TD*%
D30*
%TO.C,C1*%
X67400000Y-86700000D03*
X67400000Y-89650000D03*
%TD*%
D31*
%TO.C,U1*%
X71300000Y-87300000D03*
D32*
X70800000Y-87300000D03*
X70300000Y-87300000D03*
X69800000Y-87300000D03*
D33*
X69199450Y-87900550D03*
X69199450Y-88400550D03*
X69199450Y-88900550D03*
X69199450Y-89400550D03*
D32*
X69800000Y-90001100D03*
X70300000Y-90001100D03*
X70800000Y-90001100D03*
X71300000Y-90001100D03*
D33*
X71900550Y-89400550D03*
X71900550Y-88900550D03*
X71900550Y-88400550D03*
X71900550Y-87900550D03*
D34*
X70550000Y-88650550D03*
%TD*%
D35*
%TO.C,Q1*%
X60800000Y-81760000D03*
D36*
X63340000Y-65100000D03*
D37*
X60800000Y-65100000D03*
X58260000Y-65100000D03*
%TD*%
D38*
%TO.C,C2*%
X65400000Y-88150000D03*
X65400000Y-86600000D03*
%TD*%
M02*
