M48
; DRILL file {KiCad 7.0.1} date Thu 30 Mar 2023 04:52:30 PM EDT
; FORMAT={-:-/ absolute / inch / decimal}
; #@! TF.CreationDate,2023-03-30T16:52:30-04:00
; #@! TF.GenerationSoftware,Kicad,Pcbnew,7.0.1
; #@! TF.FileFunction,Plated,1,2,PTH
FMAT,2
INCH
; #@! TA.AperFunction,Plated,PTH,ViaDrill
T1C0.0157
; #@! TA.AperFunction,Plated,PTH,ComponentDrill
T2C0.0295
; #@! TA.AperFunction,Plated,PTH,ComponentDrill
T3C0.0315
; #@! TA.AperFunction,Plated,PTH,ComponentDrill
T4C0.0433
%
G90
G05
T1
X2.2008Y-2.5799
X2.2748Y-4.0917
X2.2953Y-2.4724
X2.5197Y-3.4094
X2.6552Y-2.4547
X2.6693Y-3.5886
X2.7166Y-3.3898
X2.7618Y-3.2919
X2.7756Y-2.063
X2.7756Y-3.4882
X2.8504Y-3.5925
X2.8608Y-3.2919
T2
X2.2008Y-1.9193
X2.2795Y-1.9193
X2.7402Y-3.813
X2.7402Y-3.8917
T3
X2.1311Y-2.2799
X2.1311Y-2.3799
X2.1311Y-2.4799
X2.1311Y-2.5799
X2.1311Y-2.6799
X2.1311Y-2.7799
X2.1311Y-2.8799
X2.1311Y-2.9799
X2.1311Y-3.0799
X2.1311Y-3.1799
X2.1311Y-3.2799
X2.1311Y-3.3799
X2.1311Y-3.4799
X2.1311Y-3.5799
X2.1311Y-3.6799
X2.1311Y-3.7799
X2.9311Y-2.6799
X2.9311Y-2.7799
X2.9311Y-2.8799
X2.9311Y-2.9799
X2.9311Y-3.0799
X2.9311Y-3.1799
X2.9311Y-3.2799
X2.9311Y-3.3799
X2.9311Y-3.4799
X2.9311Y-3.5799
X2.9311Y-3.6799
X2.9311Y-3.7799
T4
X2.2937Y-2.563
X2.3937Y-2.563
X2.4937Y-2.563
T0
M30
